<?xml version="1.0" encoding="UTF-8"?>
<!DOCTYPE svg PUBLIC "-//W3C//DTD SVG 1.1//EN" "http://www.w3.org/Graphics/SVG/1.1/DTD/svg11.dtd">
<svg xmlns="http://www.w3.org/2000/svg" version="1.1" width="210px" height="210px" style="shape-rendering:geometricPrecision; text-rendering:geometricPrecision; image-rendering:optimizeQuality; fill-rule:evenodd; clip-rule:evenodd" xmlns:xlink="http://www.w3.org/1999/xlink">
<g><path style="opacity:1" fill="#843360" d="M 140.5,10.5 C 137.933,10.2785 135.599,9.61185 133.5,8.5C 131.393,7.53178 129.059,7.19845 126.5,7.5C 126.5,8.5 126.5,9.5 126.5,10.5C 122.9,11.1795 123.233,12.0128 127.5,13C 126.316,14.1455 126.316,15.3121 127.5,16.5C 125.54,15.8617 123.707,15.8617 122,16.5C 120.041,14.4744 119.207,12.3078 119.5,10C 118.552,9.51722 117.552,9.35055 116.5,9.5C 123.038,4.81472 130.038,4.31472 137.5,8C 138.942,8.37675 139.942,9.21009 140.5,10.5 Z"/></g>
<g><path style="opacity:1" fill="#d3b6d1" d="M 140.5,10.5 C 142.833,10.8333 144.167,12.1667 144.5,14.5C 142.833,13.5 141.5,12.1667 140.5,10.5 Z"/></g>
<g><path style="opacity:1" fill="#903b5d" d="M 116.5,9.5 C 117.552,9.35055 118.552,9.51722 119.5,10C 119.207,12.3078 120.041,14.4744 122,16.5C 123.707,15.8617 125.54,15.8617 127.5,16.5C 128.338,16.8417 128.672,17.5084 128.5,18.5C 126.473,18.3379 124.473,18.5045 122.5,19C 118.631,23.037 114.631,26.8704 110.5,30.5C 110.5,29.5 110.5,28.5 110.5,27.5C 111.209,26.596 112.209,26.2627 113.5,26.5C 113.5,25.5 113.5,24.5 113.5,23.5C 115.103,23.6882 116.437,23.1882 117.5,22C 115.122,21.0255 115.456,20.3589 118.5,20C 115.833,18.6667 115.833,17.3333 118.5,16C 117.5,14.3333 116.5,12.6667 115.5,11C 116.056,10.6174 116.389,10.1174 116.5,9.5 Z"/></g>
<g><path style="opacity:1" fill="#832f67" d="M 133.5,8.5 C 132.448,8.35055 131.448,8.51722 130.5,9C 131.376,10.5848 132.709,11.5848 134.5,12C 133.376,12.2492 132.376,12.7492 131.5,13.5C 131.463,15.3222 131.796,17.3222 132.5,19.5C 131.833,19.5 131.167,19.5 130.5,19.5C 130.158,18.6618 129.492,18.3284 128.5,18.5C 128.672,17.5084 128.338,16.8417 127.5,16.5C 126.316,15.3121 126.316,14.1455 127.5,13C 123.233,12.0128 122.9,11.1795 126.5,10.5C 126.5,9.5 126.5,8.5 126.5,7.5C 129.059,7.19845 131.393,7.53178 133.5,8.5 Z"/></g>
<g><path style="opacity:1" fill="#772d6c" d="M 133.5,8.5 C 135.599,9.61185 137.933,10.2785 140.5,10.5C 141.5,12.1667 142.833,13.5 144.5,14.5C 144.833,14.5 145.167,14.5 145.5,14.5C 145.557,15.609 145.89,16.609 146.5,17.5C 145.178,17.67 144.011,17.3366 143,16.5C 142.692,17.3081 142.192,17.9747 141.5,18.5C 140.534,16.604 140.201,14.604 140.5,12.5C 139.448,12.3505 138.448,12.5172 137.5,13C 138.554,14.3876 138.72,15.8876 138,17.5C 137.223,15.2985 136.056,15.2985 134.5,17.5C 136.391,21.0506 138.724,24.2172 141.5,27C 140.944,27.3826 140.611,27.8826 140.5,28.5C 137.833,26.5 135.5,24.1667 133.5,21.5C 133.167,20.8333 132.833,20.1667 132.5,19.5C 131.796,17.3222 131.463,15.3222 131.5,13.5C 132.376,12.7492 133.376,12.2492 134.5,12C 132.709,11.5848 131.376,10.5848 130.5,9C 131.448,8.51722 132.448,8.35055 133.5,8.5 Z"/></g>
<g><path style="opacity:1" fill="#983851" d="M 116.5,9.5 C 116.389,10.1174 116.056,10.6174 115.5,11C 116.5,12.6667 117.5,14.3333 118.5,16C 115.833,17.3333 115.833,18.6667 118.5,20C 115.456,20.3589 115.122,21.0255 117.5,22C 116.437,23.1882 115.103,23.6882 113.5,23.5C 113.5,24.5 113.5,25.5 113.5,26.5C 112.209,26.2627 111.209,26.596 110.5,27.5C 110.167,27.5 109.833,27.5 109.5,27.5C 110.503,22.8624 112.003,18.5291 114,14.5C 110.113,16.3532 106.947,19.0199 104.5,22.5C 102.784,24.0248 100.784,25.0248 98.5,25.5C 104.197,19.8018 110.197,14.4685 116.5,9.5 Z"/></g>
<g><path style="opacity:1" fill="#c9a7c5" d="M 145.5,14.5 C 146.833,15.1667 147.833,16.1667 148.5,17.5C 147.833,17.5 147.167,17.5 146.5,17.5C 145.89,16.609 145.557,15.609 145.5,14.5 Z"/></g>
<g><path style="opacity:1" fill="#a4384a" d="M 109.5,27.5 C 108.878,29.1216 107.878,30.4549 106.5,31.5C 106.419,28.995 106.419,26.495 106.5,24C 105.956,23.2828 105.289,22.7828 104.5,22.5C 106.947,19.0199 110.113,16.3532 114,14.5C 112.003,18.5291 110.503,22.8624 109.5,27.5 Z"/></g>
<g><path style="opacity:1" fill="#c0a1c0" d="M 148.5,17.5 C 149.833,18.1667 150.833,19.1667 151.5,20.5C 149.5,20.5 148.5,19.5 148.5,17.5 Z"/></g>
<g><path style="opacity:1" fill="#2f174c" d="M 198.5,15.5 C 198.027,19.7331 197.027,23.7331 195.5,27.5C 195.777,24.5525 195.444,21.7191 194.5,19C 188.442,19.2435 182.442,20.0769 176.5,21.5C 183.56,18.8994 190.893,16.8994 198.5,15.5 Z"/></g>
<g><path style="opacity:1" fill="#d6b8ce" d="M 130.5,19.5 C 131.167,19.5 131.833,19.5 132.5,19.5C 132.833,20.1667 133.167,20.8333 133.5,21.5C 131.973,21.573 130.973,20.9063 130.5,19.5 Z"/></g>
<g><path style="opacity:1" fill="#391664" d="M 195.5,27.5 C 194.728,28.6935 193.728,29.6935 192.5,30.5C 193.039,27.305 192.039,24.805 189.5,23C 190.624,22.7508 191.624,22.2508 192.5,21.5C 190.383,20.5307 188.383,20.864 186.5,22.5C 183.162,20.9997 180.828,21.9997 179.5,25.5C 177.5,25.5 175.5,25.5 173.5,25.5C 174.211,23.9699 175.211,22.6366 176.5,21.5C 182.442,20.0769 188.442,19.2435 194.5,19C 195.444,21.7191 195.777,24.5525 195.5,27.5 Z"/></g>
<g><path style="opacity:1" fill="#b99cb9" d="M 151.5,20.5 C 153.587,21.5846 154.92,23.2512 155.5,25.5C 153.413,24.4154 152.08,22.7488 151.5,20.5 Z"/></g>
<g><path style="opacity:1" fill="#74237c" d="M 148.5,32.5 C 148.214,35.2773 147.88,38.1106 147.5,41C 148.167,42.3333 148.833,43.6667 149.5,45C 147.924,45.4396 146.59,46.273 145.5,47.5C 143.198,46.0013 143.531,44.668 146.5,43.5C 144.722,41.736 143.389,39.736 142.5,37.5C 142.342,34.4545 143.009,31.6212 144.5,29C 141.956,26.7779 141.956,24.6112 144.5,22.5C 146.936,23.5011 146.936,24.6677 144.5,26C 144.905,26.9454 145.572,27.6121 146.5,28C 145.833,29.857 146.5,31.357 148.5,32.5 Z"/></g>
<g><path style="opacity:1" fill="#331163" d="M 192.5,30.5 C 190.295,31.292 188.295,31.292 186.5,30.5C 185.294,29.1196 185.627,27.9529 187.5,27C 185.833,26.6667 184.167,26.3333 182.5,26C 184.319,25.2597 185.652,24.0931 186.5,22.5C 188.383,20.864 190.383,20.5307 192.5,21.5C 191.624,22.2508 190.624,22.7508 189.5,23C 192.039,24.805 193.039,27.305 192.5,30.5 Z"/></g>
<g><path style="opacity:1" fill="#762877" d="M 146.5,17.5 C 147.167,19.8333 147.833,22.1667 148.5,24.5C 147.742,26.9815 147.742,29.6481 148.5,32.5C 146.5,31.357 145.833,29.857 146.5,28C 145.572,27.6121 144.905,26.9454 144.5,26C 146.936,24.6677 146.936,23.5011 144.5,22.5C 141.956,24.6112 141.956,26.7779 144.5,29C 143.009,31.6212 142.342,34.4545 142.5,37.5C 142.167,37.5 141.833,37.5 141.5,37.5C 141.81,34.2869 141.477,31.2869 140.5,28.5C 140.611,27.8826 140.944,27.3826 141.5,27C 138.724,24.2172 136.391,21.0506 134.5,17.5C 136.056,15.2985 137.223,15.2985 138,17.5C 138.72,15.8876 138.554,14.3876 137.5,13C 138.448,12.5172 139.448,12.3505 140.5,12.5C 140.201,14.604 140.534,16.604 141.5,18.5C 142.192,17.9747 142.692,17.3081 143,16.5C 144.011,17.3366 145.178,17.67 146.5,17.5 Z"/></g>
<g><path style="opacity:1" fill="#c3b0c8" d="M 163.5,25.5 C 165.027,25.427 166.027,26.0937 166.5,27.5C 164.973,27.573 163.973,26.9063 163.5,25.5 Z"/></g>
<g><path style="opacity:1" fill="#b2413f" d="M 104.5,22.5 C 105.289,22.7828 105.956,23.2828 106.5,24C 106.419,26.495 106.419,28.995 106.5,31.5C 104.873,33.4637 102.873,34.797 100.5,35.5C 98.5212,39.1539 96.5212,42.8206 94.5,46.5C 94.5,47.1667 94.1667,47.5 93.5,47.5C 94.0126,44.5515 94.0126,41.7181 93.5,39C 95.8032,36.7404 97.4698,34.5737 98.5,32.5C 96.5405,31.4808 94.5405,31.4808 92.5,32.5C 94.155,29.847 96.155,27.5136 98.5,25.5C 100.784,25.0248 102.784,24.0248 104.5,22.5 Z"/></g>
<g><path style="opacity:1" fill="#3a1266" d="M 186.5,22.5 C 185.652,24.0931 184.319,25.2597 182.5,26C 184.167,26.3333 185.833,26.6667 187.5,27C 185.627,27.9529 185.294,29.1196 186.5,30.5C 186.674,32.861 187.007,35.1944 187.5,37.5C 186.087,36.0089 184.587,35.3423 183,35.5C 181.26,36.7158 180.26,38.3825 180,40.5C 179.25,39.8742 178.416,39.3742 177.5,39C 178.956,38.5774 179.456,37.7441 179,36.5C 177.984,37.6341 177.317,37.3008 177,35.5C 176,36.1667 175,36.8333 174,37.5C 174.845,35.6748 175.678,33.8415 176.5,32C 175.711,31.4536 174.711,30.7869 173.5,30C 174.337,28.9887 174.67,27.8221 174.5,26.5C 176.415,26.7845 178.081,26.4511 179.5,25.5C 180.828,21.9997 183.162,20.9997 186.5,22.5 Z"/></g>
<g><path style="opacity:1" fill="#f2e2f2" d="M 155.5,25.5 C 156.586,25.62 157.253,26.2867 157.5,27.5C 155.235,31.3494 153.568,35.3494 152.5,39.5C 152.5,38.1667 152.5,36.8333 152.5,35.5C 153.295,32.5766 154.628,29.9099 156.5,27.5C 156.137,26.8165 155.804,26.1499 155.5,25.5 Z"/></g>
<g><path style="opacity:1" fill="#3d1d5a" d="M 176.5,21.5 C 175.211,22.6366 174.211,23.9699 173.5,25.5C 172.5,25.5 171.5,25.5 170.5,25.5C 170.866,27.905 171.533,30.2383 172.5,32.5C 172.457,33.4164 172.124,34.0831 171.5,34.5C 171.5,33.8333 171.5,33.1667 171.5,32.5C 171.167,31.5 170.5,30.8333 169.5,30.5C 169.167,29.5 168.5,28.8333 167.5,28.5C 166.833,28.5 166.5,28.1667 166.5,27.5C 166.027,26.0937 165.027,25.427 163.5,25.5C 162.957,25.44 162.624,25.1067 162.5,24.5C 166.925,22.4813 171.592,21.4813 176.5,21.5 Z"/></g>
<g><path style="opacity:1" fill="#c8b6ce" d="M 167.5,28.5 C 168.5,28.8333 169.167,29.5 169.5,30.5C 168.167,30.5 167.5,29.8333 167.5,28.5 Z"/></g>
<g><path style="opacity:1" fill="#2f1157" d="M 195.5,27.5 C 195.198,30.3725 194.531,33.0392 193.5,35.5C 192.313,39.5505 190.813,43.5505 189,47.5C 187.67,46.4178 186.17,45.7512 184.5,45.5C 185.11,44.609 185.443,43.609 185.5,42.5C 188.503,41.83 189.17,40.1633 187.5,37.5C 187.007,35.1944 186.674,32.861 186.5,30.5C 188.295,31.292 190.295,31.292 192.5,30.5C 193.728,29.6935 194.728,28.6935 195.5,27.5 Z"/></g>
<g><path style="opacity:1" fill="#c3b1cb" d="M 169.5,30.5 C 170.5,30.8333 171.167,31.5 171.5,32.5C 170.167,32.5 169.5,31.8333 169.5,30.5 Z"/></g>
<g><path style="opacity:1" fill="#f6e4e6" d="M 128.5,18.5 C 129.492,18.3284 130.158,18.6618 130.5,19.5C 127.68,19.2475 125.014,19.7475 122.5,21C 112.633,31.3669 102.633,41.5335 92.5,51.5C 92.5,50.8333 92.5,50.1667 92.5,49.5C 92.8333,48.8333 93.1667,48.1667 93.5,47.5C 94.1667,47.5 94.5,47.1667 94.5,46.5C 100.167,41.5 105.5,36.1667 110.5,30.5C 114.631,26.8704 118.631,23.037 122.5,19C 124.473,18.5045 126.473,18.3379 128.5,18.5 Z"/></g>
<g><path style="opacity:1" fill="#dcd4e3" d="M 198.5,15.5 C 199.586,15.62 200.253,16.2867 200.5,17.5C 197.194,28.7016 194.527,40.0349 192.5,51.5C 191.209,51.7373 190.209,51.404 189.5,50.5C 190.833,50.5 191.5,49.8333 191.5,48.5C 192.275,44.186 192.941,39.8526 193.5,35.5C 194.531,33.0392 195.198,30.3725 195.5,27.5C 197.027,23.7331 198.027,19.7331 198.5,15.5 Z"/></g>
<g><path style="opacity:1" fill="#a0464b" d="M 109.5,27.5 C 109.833,27.5 110.167,27.5 110.5,27.5C 110.5,28.5 110.5,29.5 110.5,30.5C 105.5,36.1667 100.167,41.5 94.5,46.5C 96.5212,42.8206 98.5212,39.1539 100.5,35.5C 102.873,34.797 104.873,33.4637 106.5,31.5C 107.878,30.4549 108.878,29.1216 109.5,27.5 Z"/></g>
<g><path style="opacity:1" fill="#bf4c3c" d="M 93.5,47.5 C 93.1667,48.1667 92.8333,48.8333 92.5,49.5C 91.8333,49.8333 91.1667,50.1667 90.5,50.5C 90.7076,48.0799 90.3742,45.7466 89.5,43.5C 91.2562,41.8087 91.7562,39.8087 91,37.5C 88.5668,38.3067 86.0668,39.64 83.5,41.5C 86.1185,38.2148 89.1185,35.2148 92.5,32.5C 94.5405,31.4808 96.5405,31.4808 98.5,32.5C 97.4698,34.5737 95.8032,36.7404 93.5,39C 94.0126,41.7181 94.0126,44.5515 93.5,47.5 Z"/></g>
<g><path style="opacity:1" fill="#3c1664" d="M 173.5,25.5 C 175.5,25.5 177.5,25.5 179.5,25.5C 178.081,26.4511 176.415,26.7845 174.5,26.5C 174.67,27.8221 174.337,28.9887 173.5,30C 174.711,30.7869 175.711,31.4536 176.5,32C 175.678,33.8415 174.845,35.6748 174,37.5C 175,36.8333 176,36.1667 177,35.5C 177.317,37.3008 177.984,37.6341 179,36.5C 179.456,37.7441 178.956,38.5774 177.5,39C 178.416,39.3742 179.25,39.8742 180,40.5C 180.26,38.3825 181.26,36.7158 183,35.5C 184.587,35.3423 186.087,36.0089 187.5,37.5C 189.17,40.1633 188.503,41.83 185.5,42.5C 182.57,41.701 179.57,41.3677 176.5,41.5C 176.5,42.8333 176.5,44.1667 176.5,45.5C 175.5,45.5 174.5,45.5 173.5,45.5C 171.853,43.6736 169.853,42.3403 167.5,41.5C 166.833,41.5 166.167,41.5 165.5,41.5C 166.792,38.5994 168.792,36.2661 171.5,34.5C 172.124,34.0831 172.457,33.4164 172.5,32.5C 171.533,30.2383 170.866,27.905 170.5,25.5C 171.5,25.5 172.5,25.5 173.5,25.5 Z"/></g>
<g><path style="opacity:1" fill="#36214e" d="M 193.5,35.5 C 192.941,39.8526 192.275,44.186 191.5,48.5C 190.609,49.1098 189.609,49.4431 188.5,49.5C 186.833,48.5 185.5,47.1667 184.5,45.5C 186.17,45.7512 187.67,46.4178 189,47.5C 190.813,43.5505 192.313,39.5505 193.5,35.5 Z"/></g>
<g><path style="opacity:1" fill="#c75135" d="M 90.5,50.5 C 86.1667,55.5 81.5,60.1667 76.5,64.5C 79.5,59.8333 82.5,55.1667 85.5,50.5C 86.5,50.5 87.5,50.5 88.5,50.5C 88.1667,47.8333 87.8333,45.1667 87.5,42.5C 86.209,42.2627 85.209,42.596 84.5,43.5C 82.7837,45.0248 80.7837,46.0248 78.5,46.5C 79.0819,45.0689 79.9152,43.7356 81,42.5C 81.6708,41.7476 82.5041,41.4142 83.5,41.5C 86.0668,39.64 88.5668,38.3067 91,37.5C 91.7562,39.8087 91.2562,41.8087 89.5,43.5C 90.3742,45.7466 90.7076,48.0799 90.5,50.5 Z"/></g>
<g><path style="opacity:1" fill="#4b1970" d="M 167.5,41.5 C 169.853,42.3403 171.853,43.6736 173.5,45.5C 173.649,46.552 173.483,47.552 173,48.5C 170.333,49.8333 168.333,51.8333 167,54.5C 166.601,54.2716 166.435,53.9382 166.5,53.5C 166.5,52.8333 166.5,52.1667 166.5,51.5C 166.414,50.5041 166.748,49.6708 167.5,49C 166.09,48.6322 165.09,47.7989 164.5,46.5C 165.994,45.0953 166.994,43.4287 167.5,41.5 Z"/></g>
<g><path style="opacity:1" fill="#46235f" d="M 185.5,42.5 C 185.443,43.609 185.11,44.609 184.5,45.5C 183.5,45.1667 182.833,44.5 182.5,43.5C 181.749,42.4265 180.749,42.2599 179.5,43C 170.479,53.1718 162.479,64.0052 155.5,75.5C 155.5,74.5 155.5,73.5 155.5,72.5C 156.301,70.9582 156.634,69.2915 156.5,67.5C 159.113,66.9045 159.113,66.0712 156.5,65C 158.134,64.5065 159.801,64.3398 161.5,64.5C 161.5,63.1667 161.5,61.8333 161.5,60.5C 162.5,60.5 163.5,60.5 164.5,60.5C 164.338,58.4727 164.505,56.4727 165,54.5C 165.383,53.944 165.883,53.6107 166.5,53.5C 166.435,53.9382 166.601,54.2716 167,54.5C 168.333,51.8333 170.333,49.8333 173,48.5C 173.483,47.552 173.649,46.552 173.5,45.5C 174.5,45.5 175.5,45.5 176.5,45.5C 176.5,44.1667 176.5,42.8333 176.5,41.5C 179.57,41.3677 182.57,41.701 185.5,42.5 Z"/></g>
<g><path style="opacity:1" fill="#6c2074" d="M 148.5,24.5 C 149.302,25.9516 149.802,27.6183 150,29.5C 150.333,28.1667 150.667,26.8333 151,25.5C 151.692,26.0253 152.192,26.6919 152.5,27.5C 149.736,33.1077 149.07,38.941 150.5,45C 148.809,47.5371 147.142,50.0371 145.5,52.5C 144.883,52.6107 144.383,52.944 144,53.5C 143.937,49.5746 142.771,46.0746 140.5,43C 141.406,41.3005 141.739,39.4672 141.5,37.5C 141.833,37.5 142.167,37.5 142.5,37.5C 143.389,39.736 144.722,41.736 146.5,43.5C 143.531,44.668 143.198,46.0013 145.5,47.5C 146.59,46.273 147.924,45.4396 149.5,45C 148.833,43.6667 148.167,42.3333 147.5,41C 147.88,38.1106 148.214,35.2773 148.5,32.5C 147.742,29.6481 147.742,26.9815 148.5,24.5 Z"/></g>
<g><path style="opacity:1" fill="#602265" d="M 146.5,17.5 C 147.167,17.5 147.833,17.5 148.5,17.5C 148.5,19.5 149.5,20.5 151.5,20.5C 152.08,22.7488 153.413,24.4154 155.5,25.5C 155.804,26.1499 156.137,26.8165 156.5,27.5C 154.628,29.9099 153.295,32.5766 152.5,35.5C 151.675,39.6472 151.175,43.9805 151,48.5C 149.303,51.02 147.47,53.3533 145.5,55.5C 145.5,54.5 145.5,53.5 145.5,52.5C 147.142,50.0371 148.809,47.5371 150.5,45C 149.07,38.941 149.736,33.1077 152.5,27.5C 152.192,26.6919 151.692,26.0253 151,25.5C 150.667,26.8333 150.333,28.1667 150,29.5C 149.802,27.6183 149.302,25.9516 148.5,24.5C 147.833,22.1667 147.167,19.8333 146.5,17.5 Z"/></g>
<g><path style="opacity:1" fill="#e7d0e7" d="M 152.5,35.5 C 152.5,36.8333 152.5,38.1667 152.5,39.5C 153.135,42.4929 153.301,45.4929 153,48.5C 150.277,51.5568 147.944,54.8901 146,58.5C 145.023,59.7736 144.189,59.7736 143.5,58.5C 144.906,58.0269 145.573,57.0269 145.5,55.5C 147.47,53.3533 149.303,51.02 151,48.5C 151.175,43.9805 151.675,39.6472 152.5,35.5 Z"/></g>
<g><path style="opacity:1" fill="#eee3f0" d="M 182.5,43.5 C 174.119,51.0583 166.952,59.725 161,69.5C 154.917,80.9953 149.417,92.662 144.5,104.5C 144.5,103.833 144.5,103.167 144.5,102.5C 145.5,99.1667 146.5,95.8333 147.5,92.5C 150.403,87.0232 153.07,81.3565 155.5,75.5C 162.479,64.0052 170.479,53.1718 179.5,43C 180.749,42.2599 181.749,42.4265 182.5,43.5 Z"/></g>
<g><path style="opacity:1" fill="#7b7181" d="M 191.5,48.5 C 191.5,49.8333 190.833,50.5 189.5,50.5C 188.833,50.5 188.5,50.1667 188.5,49.5C 189.609,49.4431 190.609,49.1098 191.5,48.5 Z"/></g>
<g><path style="opacity:1" fill="#dd511f" d="M 84.5,43.5 C 86.2532,49.8192 83.9199,53.9859 77.5,56C 77.8333,56.3333 78.1667,56.6667 78.5,57C 77.635,58.3588 76.635,59.5255 75.5,60.5C 74.3249,59.0262 73.3249,57.3596 72.5,55.5C 70.812,56.5213 69.4787,57.8546 68.5,59.5C 66.4451,61.5547 64.1117,63.2213 61.5,64.5C 61.5,63.8333 61.5,63.1667 61.5,62.5C 66.9411,58.2337 72.2745,53.7337 77.5,49C 78.2524,48.3292 78.5858,47.4959 78.5,46.5C 80.7837,46.0248 82.7837,45.0248 84.5,43.5 Z"/></g>
<g><path style="opacity:1" fill="#6f3271" d="M 140.5,28.5 C 141.477,31.2869 141.81,34.2869 141.5,37.5C 141.739,39.4672 141.406,41.3005 140.5,43C 142.771,46.0746 143.937,49.5746 144,53.5C 144.383,52.944 144.883,52.6107 145.5,52.5C 145.5,53.5 145.5,54.5 145.5,55.5C 145.573,57.0269 144.906,58.0269 143.5,58.5C 138.06,48.9938 137.06,38.9938 140.5,28.5 Z"/></g>
<g><path style="opacity:1" fill="#50186f" d="M 165.5,41.5 C 166.167,41.5 166.833,41.5 167.5,41.5C 166.994,43.4287 165.994,45.0953 164.5,46.5C 165.09,47.7989 166.09,48.6322 167.5,49C 166.748,49.6708 166.414,50.5041 166.5,51.5C 165.504,51.5858 164.671,51.2524 164,50.5C 163.613,54.2181 161.946,57.2181 159,59.5C 156.236,57.4423 155.903,55.109 158,52.5C 159.101,50.6061 160.434,49.9394 162,50.5C 162.119,47.0047 163.285,44.0047 165.5,41.5 Z"/></g>
<g><path style="opacity:1" fill="#4e1a69" d="M 165.5,41.5 C 163.285,44.0047 162.119,47.0047 162,50.5C 160.434,49.9394 159.101,50.6061 158,52.5C 155.903,55.109 156.236,57.4423 159,59.5C 161.946,57.2181 163.613,54.2181 164,50.5C 164.671,51.2524 165.504,51.5858 166.5,51.5C 166.5,52.1667 166.5,52.8333 166.5,53.5C 165.883,53.6107 165.383,53.944 165,54.5C 164.505,56.4727 164.338,58.4727 164.5,60.5C 163.5,60.5 162.5,60.5 161.5,60.5C 161.5,61.8333 161.5,63.1667 161.5,64.5C 159.801,64.3398 158.134,64.5065 156.5,65C 159.113,66.0712 159.113,66.9045 156.5,67.5C 154.11,67.3152 153.11,65.9818 153.5,63.5C 153.667,62.5 153.833,61.5 154,60.5C 154.654,61.6956 155.154,61.6956 155.5,60.5C 155.108,58.1286 154.108,57.4619 152.5,58.5C 156.109,52.2847 160.442,46.618 165.5,41.5 Z"/></g>
<g><path style="opacity:1" fill="#d2784f" d="M 78.5,46.5 C 78.5858,47.4959 78.2524,48.3292 77.5,49C 72.2745,53.7337 66.9411,58.2337 61.5,62.5C 66.5572,56.4405 72.2238,51.1072 78.5,46.5 Z"/></g>
<g><path style="opacity:1" fill="#d65028" d="M 76.5,64.5 C 75.8333,65.8333 74.8333,66.8333 73.5,67.5C 73.3939,64.9214 74.0605,62.588 75.5,60.5C 76.635,59.5255 77.635,58.3588 78.5,57C 78.1667,56.6667 77.8333,56.3333 77.5,56C 83.9199,53.9859 86.2532,49.8192 84.5,43.5C 85.209,42.596 86.209,42.2627 87.5,42.5C 87.8333,45.1667 88.1667,47.8333 88.5,50.5C 87.5,50.5 86.5,50.5 85.5,50.5C 82.5,55.1667 79.5,59.8333 76.5,64.5 Z"/></g>
<g><path style="opacity:1" fill="#f7e0cc" d="M 92.5,49.5 C 92.5,50.1667 92.5,50.8333 92.5,51.5C 82.4519,63.5481 71.4519,74.5481 59.5,84.5C 58.5,85.1667 57.5,85.8333 56.5,86.5C 61.8959,80.1328 67.5626,73.7994 73.5,67.5C 74.8333,66.8333 75.8333,65.8333 76.5,64.5C 81.5,60.1667 86.1667,55.5 90.5,50.5C 91.1667,50.1667 91.8333,49.8333 92.5,49.5 Z"/></g>
<g><path style="opacity:1" fill="#a83c4e" d="M 108.5,59.5 C 110.638,58.1919 112.638,58.5252 114.5,60.5C 114.392,64.2205 114.392,68.0538 114.5,72C 113.888,74.0577 112.888,75.891 111.5,77.5C 112.953,79.6439 112.62,81.4773 110.5,83C 111.791,84.2917 111.791,85.4583 110.5,86.5C 109.833,86.5 109.167,86.5 108.5,86.5C 109.618,81.0894 110.618,75.9228 111.5,71C 110.407,68.2663 110.407,65.5996 111.5,63C 110.837,61.4815 109.837,60.3149 108.5,59.5 Z"/></g>
<g><path style="opacity:1" fill="#2e1353" d="M 186.5,59.5 C 187.886,61.6333 188.886,64.6333 189.5,68.5C 191.912,68.244 193.579,69.244 194.5,71.5C 195.417,70.8728 196.417,70.5394 197.5,70.5C 198.5,70.8333 199.167,71.5 199.5,72.5C 199.427,74.0269 200.094,75.0269 201.5,75.5C 202.338,75.8417 202.672,76.5084 202.5,77.5C 205.174,86.7887 203.174,94.7887 196.5,101.5C 195.391,101.557 194.391,101.89 193.5,102.5C 192.766,101.292 192.433,99.9587 192.5,98.5C 193.833,98.5 195.167,98.5 196.5,98.5C 197.014,96.4884 197.18,94.4884 197,92.5C 196.282,93.4506 195.449,93.6172 194.5,93C 194.701,88.4882 193.701,88.6549 191.5,93.5C 190.311,94.4287 188.978,94.762 187.5,94.5C 190.535,90.5583 191.202,86.2249 189.5,81.5C 188.992,77.0008 186.658,74.0008 182.5,72.5C 184.575,72.3841 186.575,71.8841 188.5,71C 187.272,69.4323 185.272,67.9323 182.5,66.5C 179.972,69.0603 178.305,68.3936 177.5,64.5C 177.608,63.5581 177.941,62.7247 178.5,62C 178,61.8333 177.5,61.6667 177,61.5C 174.085,64.1335 171.252,66.8002 168.5,69.5C 169.477,66.0108 171.477,63.1775 174.5,61C 177.82,60.257 180.987,59.0903 184,57.5C 185.301,57.6387 186.134,58.3054 186.5,59.5 Z"/></g>
<g><path style="opacity:1" fill="#a35250" d="M 115.5,59.5 C 114.833,59.5 114.5,59.8333 114.5,60.5C 112.638,58.5252 110.638,58.1919 108.5,59.5C 107.209,59.2627 106.209,59.596 105.5,60.5C 104.542,60.9528 103.708,61.6195 103,62.5C 102.362,65.6009 101.195,68.2676 99.5,70.5C 99.2675,62.6741 102.934,58.0075 110.5,56.5C 112.692,56.7573 114.359,57.7573 115.5,59.5 Z"/></g>
<g><path style="opacity:1" fill="#f0d5dc" d="M 117.5,61.5 C 119.223,63.78 119.889,66.4467 119.5,69.5C 118.469,67.0392 117.802,64.3725 117.5,61.5 Z"/></g>
<g><path style="opacity:1" fill="#b03f48" d="M 105.5,60.5 C 106.209,59.596 107.209,59.2627 108.5,59.5C 109.837,60.3149 110.837,61.4815 111.5,63C 110.407,65.5996 110.407,68.2663 111.5,71C 110.618,75.9228 109.618,81.0894 108.5,86.5C 108.5,86.8333 108.5,87.1667 108.5,87.5C 107.5,88.8333 106.5,90.1667 105.5,91.5C 105.208,88.6239 105.208,85.9572 105.5,83.5C 105.936,81.2537 106.603,79.0871 107.5,77C 107.217,71.8985 107.217,66.8985 107.5,62C 106.956,61.2828 106.289,60.7828 105.5,60.5 Z"/></g>
<g><path style="opacity:1" fill="#ef550b" d="M 68.5,59.5 C 68.2761,61.7867 67.6094,63.9534 66.5,66C 66.8361,67.0299 67.5028,67.5299 68.5,67.5C 68.5,68.8333 68.5,70.1667 68.5,71.5C 67.1779,71.67 66.0113,71.3366 65,70.5C 64.7216,71.4158 64.2216,72.0825 63.5,72.5C 62.019,71.5788 60.6856,70.4121 59.5,69C 59.7432,68.0979 60.0766,67.2646 60.5,66.5C 60.8333,65.8333 61.1667,65.1667 61.5,64.5C 64.1117,63.2213 66.4451,61.5547 68.5,59.5 Z"/></g>
<g><path style="opacity:1" fill="#ea500f" d="M 75.5,60.5 C 74.0605,62.588 73.3939,64.9214 73.5,67.5C 71.8333,67.5 70.1667,67.5 68.5,67.5C 67.5028,67.5299 66.8361,67.0299 66.5,66C 67.6094,63.9534 68.2761,61.7867 68.5,59.5C 69.4787,57.8546 70.812,56.5213 72.5,55.5C 73.3249,57.3596 74.3249,59.0262 75.5,60.5 Z"/></g>
<g><path style="opacity:1" fill="#b64542" d="M 105.5,60.5 C 106.289,60.7828 106.956,61.2828 107.5,62C 107.217,66.8985 107.217,71.8985 107.5,77C 106.603,79.0871 105.936,81.2537 105.5,83.5C 104.833,82.5 104.167,81.5 103.5,80.5C 104.341,78.6208 104.675,76.6208 104.5,74.5C 102.5,74.8333 100.5,75.1667 98.5,75.5C 98.366,73.7085 98.6993,72.0418 99.5,70.5C 101.195,68.2676 102.362,65.6009 103,62.5C 103.708,61.6195 104.542,60.9528 105.5,60.5 Z"/></g>
<g><path style="opacity:1" fill="#34165f" d="M 182.5,72.5 C 177.579,72.1384 172.913,71.1384 168.5,69.5C 171.252,66.8002 174.085,64.1335 177,61.5C 177.5,61.6667 178,61.8333 178.5,62C 177.941,62.7247 177.608,63.5581 177.5,64.5C 178.305,68.3936 179.972,69.0603 182.5,66.5C 185.272,67.9323 187.272,69.4323 188.5,71C 186.575,71.8841 184.575,72.3841 182.5,72.5 Z"/></g>
<g><path style="opacity:1" fill="#432d60" d="M 186.5,59.5 C 190.5,62.8333 194.167,66.5 197.5,70.5C 196.417,70.5394 195.417,70.8728 194.5,71.5C 193.579,69.244 191.912,68.244 189.5,68.5C 188.886,64.6333 187.886,61.6333 186.5,59.5 Z"/></g>
<g><path style="opacity:1" fill="#6a227a" d="M 156.5,67.5 C 156.634,69.2915 156.301,70.9582 155.5,72.5C 153.527,73.4867 151.527,74.4867 149.5,75.5C 148.828,74.0508 148.161,72.7175 147.5,71.5C 147.584,68.6726 148.25,66.006 149.5,63.5C 150.11,61.5659 151.11,59.8993 152.5,58.5C 154.108,57.4619 155.108,58.1286 155.5,60.5C 155.154,61.6956 154.654,61.6956 154,60.5C 153.833,61.5 153.667,62.5 153.5,63.5C 153.11,65.9818 154.11,67.3152 156.5,67.5 Z"/></g>
<g><path style="opacity:1" fill="#3b2455" d="M 168.5,69.5 C 172.913,71.1384 177.579,72.1384 182.5,72.5C 186.658,74.0008 188.992,77.0008 189.5,81.5C 186.825,78.7906 184.158,76.1239 181.5,73.5C 176.749,73.359 171.749,73.359 166.5,73.5C 165.957,73.44 165.624,73.1067 165.5,72.5C 166.548,71.452 167.548,70.452 168.5,69.5 Z"/></g>
<g><path style="opacity:1" fill="#ef5f13" d="M 60.5,66.5 C 60.0766,67.2646 59.7432,68.0979 59.5,69C 60.6856,70.4121 62.019,71.5788 63.5,72.5C 64.6016,74.0919 63.935,74.9252 61.5,75C 60.8923,78.0782 59.2256,80.2449 56.5,81.5C 55.791,80.596 54.791,80.2627 53.5,80.5C 53.6567,79.1266 53.49,77.7932 53,76.5C 49.9372,79.0755 46.7705,81.4088 43.5,83.5C 48.9085,77.4248 54.5751,71.7582 60.5,66.5 Z"/></g>
<g><path style="opacity:1" fill="#ecd4db" d="M 119.5,69.5 C 120.768,71.9052 121.435,74.5718 121.5,77.5C 119.96,75.1617 119.294,72.4951 119.5,69.5 Z"/></g>
<g><path style="opacity:1" fill="#ebe1f3" d="M 181.5,73.5 C 176.4,74.7999 171.4,74.7999 166.5,73.5C 171.749,73.359 176.749,73.359 181.5,73.5 Z"/></g>
<g><path style="opacity:1" fill="#bfb5c6" d="M 199.5,72.5 C 200.906,72.9731 201.573,73.9731 201.5,75.5C 200.094,75.0269 199.427,74.0269 199.5,72.5 Z"/></g>
<g><path style="opacity:1" fill="#601f6e" d="M 147.5,71.5 C 148.161,72.7175 148.828,74.0508 149.5,75.5C 151.527,74.4867 153.527,73.4867 155.5,72.5C 155.5,73.5 155.5,74.5 155.5,75.5C 153.07,81.3565 150.403,87.0232 147.5,92.5C 149.318,85.9554 148.484,85.2888 145,90.5C 144.508,89.451 144.674,88.451 145.5,87.5C 145.145,86.4777 144.478,85.811 143.5,85.5C 145.931,84.2591 145.931,83.0924 143.5,82C 143.944,78.0986 145.278,74.5986 147.5,71.5 Z"/></g>
<g><path style="opacity:1" fill="#68206d" d="M 149.5,63.5 C 148.25,66.006 147.584,68.6726 147.5,71.5C 145.278,74.5986 143.944,78.0986 143.5,82C 145.931,83.0924 145.931,84.2591 143.5,85.5C 141.938,85.7329 140.605,86.3995 139.5,87.5C 139.34,85.8008 139.506,84.1341 140,82.5C 142.452,77.9317 144.618,73.265 146.5,68.5C 146.75,66.326 147.75,64.6594 149.5,63.5 Z"/></g>
<g><path style="opacity:1" fill="#b94338" d="M 103.5,80.5 C 102.6,83.0724 102.6,85.9058 103.5,89C 102.833,89.6667 102.167,90.3333 101.5,91C 101.854,92.6255 101.854,94.4588 101.5,96.5C 100.673,91.0149 100.173,85.3482 100,79.5C 99.8091,81.7078 99.3091,83.7078 98.5,85.5C 98.5,82.8333 98.5,80.1667 98.5,77.5C 98.5,76.8333 98.5,76.1667 98.5,75.5C 100.5,75.1667 102.5,74.8333 104.5,74.5C 104.675,76.6208 104.341,78.6208 103.5,80.5 Z"/></g>
<g><path style="opacity:1" fill="#d47138" d="M 61.5,62.5 C 61.5,63.1667 61.5,63.8333 61.5,64.5C 61.1667,65.1667 60.8333,65.8333 60.5,66.5C 54.5751,71.7582 48.9085,77.4248 43.5,83.5C 41.7721,85.2255 39.7721,86.5589 37.5,87.5C 45.4786,79.1872 53.4786,70.8539 61.5,62.5 Z"/></g>
<g><path style="opacity:1" fill="#a03953" d="M 115.5,59.5 C 117.047,66.0581 117.714,72.7247 117.5,79.5C 116.554,87.2912 116.22,94.9579 116.5,102.5C 114.465,100.062 112.799,97.3953 111.5,94.5C 111.167,91.8333 110.833,89.1667 110.5,86.5C 111.791,85.4583 111.791,84.2917 110.5,83C 112.62,81.4773 112.953,79.6439 111.5,77.5C 112.888,75.891 113.888,74.0577 114.5,72C 114.392,68.0538 114.392,64.2205 114.5,60.5C 114.5,59.8333 114.833,59.5 115.5,59.5 Z"/></g>
<g><path style="opacity:1" fill="#f35d0b" d="M 56.5,81.5 C 55.5206,83.7389 53.8539,85.4056 51.5,86.5C 50.7542,87.7362 50.4208,89.0695 50.5,90.5C 48.901,90.2322 47.5676,90.5655 46.5,91.5C 45.5267,92.984 44.1933,93.484 42.5,93C 43.3158,90.0572 43.6491,86.8906 43.5,83.5C 46.7705,81.4088 49.9372,79.0755 53,76.5C 53.49,77.7932 53.6567,79.1266 53.5,80.5C 54.791,80.2627 55.791,80.596 56.5,81.5 Z"/></g>
<g><path style="opacity:1" fill="#dbbec9" d="M 121.5,78.5 C 122.924,80.5145 123.59,82.8478 123.5,85.5C 121.837,83.5615 121.171,81.2282 121.5,78.5 Z"/></g>
<g><path style="opacity:1" fill="#8d4760" d="M 115.5,59.5 C 116.5,59.8333 117.167,60.5 117.5,61.5C 117.802,64.3725 118.469,67.0392 119.5,69.5C 119.294,72.4951 119.96,75.1617 121.5,77.5C 121.5,77.8333 121.5,78.1667 121.5,78.5C 121.171,81.2282 121.837,83.5615 123.5,85.5C 123.5,86.1667 123.5,86.8333 123.5,87.5C 123.171,90.2282 123.837,92.5615 125.5,94.5C 126.451,95.9187 126.784,97.5853 126.5,99.5C 126.704,102.518 127.037,105.518 127.5,108.5C 127.167,108.5 126.833,108.5 126.5,108.5C 125.266,103.378 123.933,98.3784 122.5,93.5C 121.444,88.4928 120.277,83.4928 119,78.5C 118.617,79.056 118.117,79.3893 117.5,79.5C 117.714,72.7247 117.047,66.0581 115.5,59.5 Z"/></g>
<g><path style="opacity:1" fill="#dd6527" d="M 68.5,67.5 C 70.1667,67.5 71.8333,67.5 73.5,67.5C 67.5626,73.7994 61.8959,80.1328 56.5,86.5C 53.5454,89.1156 50.5454,91.7823 47.5,94.5C 47.7373,93.209 47.404,92.209 46.5,91.5C 47.5676,90.5655 48.901,90.2322 50.5,90.5C 50.4208,89.0695 50.7542,87.7362 51.5,86.5C 53.8539,85.4056 55.5206,83.7389 56.5,81.5C 59.2256,80.2449 60.8923,78.0782 61.5,75C 63.935,74.9252 64.6016,74.0919 63.5,72.5C 64.2216,72.0825 64.7216,71.4158 65,70.5C 66.0113,71.3366 67.1779,71.67 68.5,71.5C 68.5,70.1667 68.5,68.8333 68.5,67.5 Z"/></g>
<g><path style="opacity:1" fill="#b05b49" d="M 98.5,77.5 C 98.5,80.1667 98.5,82.8333 98.5,85.5C 96.8615,91.6993 95.8615,98.0326 95.5,104.5C 93.7808,111.985 92.2808,119.652 91,127.5C 90.0128,131.767 89.1795,132.1 88.5,128.5C 89.2216,128.082 89.7216,127.416 90,126.5C 92.4233,109.955 95.2566,93.6214 98.5,77.5 Z"/></g>
<g><path style="opacity:1" fill="#ea5f11" d="M 43.5,83.5 C 43.6491,86.8906 43.3158,90.0572 42.5,93C 44.1933,93.484 45.5267,92.984 46.5,91.5C 47.404,92.209 47.7373,93.209 47.5,94.5C 45.3603,97.0613 43.027,99.3946 40.5,101.5C 39.8333,100.5 39.1667,99.5 38.5,98.5C 37.2237,96.4375 36.3903,94.1042 36,91.5C 34.5486,94.3034 32.3819,96.3034 29.5,97.5C 29.5569,96.391 29.8902,95.391 30.5,94.5C 33.0913,92.5756 35.4246,90.2422 37.5,87.5C 39.7721,86.5589 41.7721,85.2255 43.5,83.5 Z"/></g>
<g><path style="opacity:1" fill="#d67d47" d="M 37.5,87.5 C 35.4246,90.2422 33.0913,92.5756 30.5,94.5C 31.8333,91.1667 34.1667,88.8333 37.5,87.5 Z"/></g>
<g><path style="opacity:1" fill="#d1adbf" d="M 123.5,87.5 C 124.924,89.5145 125.59,91.8478 125.5,94.5C 123.837,92.5615 123.171,90.2282 123.5,87.5 Z"/></g>
<g><path style="opacity:1" fill="#6c2272" d="M 143.5,85.5 C 144.478,85.811 145.145,86.4777 145.5,87.5C 144.674,88.451 144.508,89.451 145,90.5C 148.484,85.2888 149.318,85.9554 147.5,92.5C 145.285,95.0925 143.619,98.0925 142.5,101.5C 142.058,105.462 140.891,109.129 139,112.5C 138.517,111.552 138.351,110.552 138.5,109.5C 139.796,105.824 139.796,101.657 138.5,97C 139.167,94.3333 139.833,91.6667 140.5,89C 139.944,88.6174 139.611,88.1174 139.5,87.5C 140.605,86.3995 141.938,85.7329 143.5,85.5 Z"/></g>
<g><path style="opacity:1" fill="#311258" d="M 193.5,102.5 C 190.922,104.94 189.588,104.606 189.5,101.5C 187.901,101.232 186.568,101.566 185.5,102.5C 184.32,105.204 183.32,105.037 182.5,102C 184.734,99.8816 186.4,97.3816 187.5,94.5C 188.978,94.762 190.311,94.4287 191.5,93.5C 193.701,88.6549 194.701,88.4882 194.5,93C 195.449,93.6172 196.282,93.4506 197,92.5C 197.18,94.4884 197.014,96.4884 196.5,98.5C 195.167,98.5 193.833,98.5 192.5,98.5C 192.433,99.9587 192.766,101.292 193.5,102.5 Z"/></g>
<g><path style="opacity:1" fill="#702965" d="M 146.5,68.5 C 144.618,73.265 142.452,77.9317 140,82.5C 139.506,84.1341 139.34,85.8008 139.5,87.5C 137.433,89.3177 136.1,91.651 135.5,94.5C 135.709,95.086 136.043,95.586 136.5,96C 135.174,98.2898 134.508,100.457 134.5,102.5C 133.761,102.369 133.094,102.536 132.5,103C 131.915,104.302 131.249,105.469 130.5,106.5C 133.663,92.8497 138.996,80.183 146.5,68.5 Z"/></g>
<g><path style="opacity:1" fill="#782570" d="M 139.5,87.5 C 139.611,88.1174 139.944,88.6174 140.5,89C 139.833,91.6667 139.167,94.3333 138.5,97C 139.796,101.657 139.796,105.824 138.5,109.5C 137.833,111.5 137.167,113.5 136.5,115.5C 135.354,113.075 134.354,110.575 133.5,108C 133.759,106.739 134.426,105.739 135.5,105C 134.748,104.329 134.414,103.496 134.5,102.5C 134.508,100.457 135.174,98.2898 136.5,96C 136.043,95.586 135.709,95.086 135.5,94.5C 136.1,91.651 137.433,89.3177 139.5,87.5 Z"/></g>
<g><path style="opacity:1" fill="#bb3c2e" d="M 101.5,96.5 C 102.147,97.2739 102.48,98.2739 102.5,99.5C 100.936,103.675 100.269,108.008 100.5,112.5C 97.126,110.862 96.7927,108.696 99.5,106C 98.7511,104.266 98.2511,102.433 98,100.5C 97.2177,103.31 96.3844,105.977 95.5,108.5C 95.5,107.167 95.5,105.833 95.5,104.5C 95.8615,98.0326 96.8615,91.6993 98.5,85.5C 99.3091,83.7078 99.8091,81.7078 100,79.5C 100.173,85.3482 100.673,91.0149 101.5,96.5 Z"/></g>
<g><path style="opacity:1" fill="#9a365a" d="M 122.5,93.5 C 123.583,105.085 123.583,116.418 122.5,127.5C 121.685,126.571 120.852,125.571 120,124.5C 118.675,117.045 117.509,109.712 116.5,102.5C 116.22,94.9579 116.554,87.2912 117.5,79.5C 118.117,79.3893 118.617,79.056 119,78.5C 120.277,83.4928 121.444,88.4928 122.5,93.5 Z"/></g>
<g><path style="opacity:1" fill="#f25d09" d="M 38.5,98.5 C 37.6993,100.042 37.366,101.708 37.5,103.5C 36.1667,103.5 34.8333,103.5 33.5,103.5C 33.5,104.5 33.5,105.5 33.5,106.5C 31.7376,106.643 30.0709,106.309 28.5,105.5C 27.7025,105.957 27.3691,106.624 27.5,107.5C 26.4138,107.38 25.7472,106.713 25.5,105.5C 26.1776,103.484 26.8443,101.484 27.5,99.5C 27.8333,98.5 28.5,97.8333 29.5,97.5C 32.3819,96.3034 34.5486,94.3034 36,91.5C 36.3903,94.1042 37.2237,96.4375 38.5,98.5 Z"/></g>
<g><path style="opacity:1" fill="#d28259" d="M 83.5,113.5 C 83.5,114.833 83.5,116.167 83.5,117.5C 81.98,114.439 80.3133,111.439 78.5,108.5C 78.2687,105.937 76.9354,104.27 74.5,103.5C 73.8333,103.5 73.1667,103.5 72.5,103.5C 70.7354,102.539 68.7354,102.205 66.5,102.5C 75.8404,99.7639 81.5071,103.431 83.5,113.5 Z"/></g>
<g><path style="opacity:1" fill="#e8c7dd" d="M 126.5,99.5 C 127.816,102.408 128.816,105.408 129.5,108.5C 129.5,108.833 129.5,109.167 129.5,109.5C 128.508,109.672 127.842,109.338 127.5,108.5C 127.037,105.518 126.704,102.518 126.5,99.5 Z"/></g>
<g><path style="opacity:1" fill="#331351" d="M 187.5,94.5 C 186.4,97.3816 184.734,99.8816 182.5,102C 183.32,105.037 184.32,105.204 185.5,102.5C 186.679,104.441 186.013,105.774 183.5,106.5C 182.85,106.196 182.183,105.863 181.5,105.5C 176.347,106.989 172.347,109.989 169.5,114.5C 169.167,114.5 168.833,114.5 168.5,114.5C 168.167,114.5 167.833,114.5 167.5,114.5C 173.833,107.5 180.5,100.833 187.5,94.5 Z"/></g>
<g><path style="opacity:1" fill="#301452" d="M 185.5,102.5 C 186.568,101.566 187.901,101.232 189.5,101.5C 189.588,104.606 190.922,104.94 193.5,102.5C 194.391,101.89 195.391,101.557 196.5,101.5C 192.833,105.833 188.833,109.833 184.5,113.5C 184.5,113.167 184.5,112.833 184.5,112.5C 185.067,110.97 185.733,109.47 186.5,108C 185.263,107.768 184.263,107.268 183.5,106.5C 186.013,105.774 186.679,104.441 185.5,102.5 Z"/></g>
<g><path style="opacity:1" fill="#ef6411" d="M 27.5,99.5 C 26.8443,101.484 26.1776,103.484 25.5,105.5C 25.7472,106.713 26.4138,107.38 27.5,107.5C 28.4325,109.946 27.4325,111.613 24.5,112.5C 23.8771,111.027 22.2104,110.027 19.5,109.5C 18.1451,110.188 17.1451,111.188 16.5,112.5C 14.8459,113.75 13.1793,115.084 11.5,116.5C 16.0512,110.277 21.3845,104.61 27.5,99.5 Z"/></g>
<g><path style="opacity:1" fill="#ef5b11" d="M 67.5,104.5 C 72.8185,104.589 74.4851,106.756 72.5,111C 73.3279,111.915 74.3279,112.581 75.5,113C 72.5318,115.584 72.8652,117.584 76.5,119C 76.2716,119.399 75.9382,119.565 75.5,119.5C 74.8333,119.5 74.1667,119.5 73.5,119.5C 72.7659,118.292 72.4326,116.959 72.5,115.5C 71.0413,115.433 69.7079,115.766 68.5,116.5C 68.7214,115.265 69.3881,114.265 70.5,113.5C 69.7542,112.264 69.4208,110.93 69.5,109.5C 70.0283,108.153 70.195,106.819 70,105.5C 67.9592,106.423 65.7925,106.756 63.5,106.5C 64.6715,105.655 66.0048,104.989 67.5,104.5 Z"/></g>
<g><path style="opacity:1" fill="#ee5a16" d="M 67.5,104.5 C 68.9187,103.549 70.5853,103.216 72.5,103.5C 73.1667,103.5 73.8333,103.5 74.5,103.5C 75.9695,108.226 77.3028,113.059 78.5,118C 78.2591,121.484 77.2591,121.984 75.5,119.5C 75.9382,119.565 76.2716,119.399 76.5,119C 72.8652,117.584 72.5318,115.584 75.5,113C 74.3279,112.581 73.3279,111.915 72.5,111C 74.4851,106.756 72.8185,104.589 67.5,104.5 Z"/></g>
<g><path style="opacity:1" fill="#e06722" d="M 38.5,98.5 C 39.1667,99.5 39.8333,100.5 40.5,101.5C 36.5,105.833 32.5,110.167 28.5,114.5C 25.1667,117.5 21.8333,120.5 18.5,123.5C 19.6298,121.685 20.2964,119.685 20.5,117.5C 21.2613,116.609 22.2613,115.942 23.5,115.5C 24.3857,114.675 24.719,113.675 24.5,112.5C 27.4325,111.613 28.4325,109.946 27.5,107.5C 27.3691,106.624 27.7025,105.957 28.5,105.5C 30.0709,106.309 31.7376,106.643 33.5,106.5C 33.5,105.5 33.5,104.5 33.5,103.5C 34.8333,103.5 36.1667,103.5 37.5,103.5C 37.366,101.708 37.6993,100.042 38.5,98.5 Z"/></g>
<g><path style="opacity:1" fill="#f35905" d="M 69.5,109.5 C 68.7611,109.369 68.0944,109.536 67.5,110C 68.5171,111.049 68.6838,112.216 68,113.5C 66.2434,113.133 64.7434,113.966 63.5,116C 63.8333,116.333 64.1667,116.667 64.5,117C 63.2189,118.409 62.2189,119.909 61.5,121.5C 60.551,119.263 59.8844,116.929 59.5,114.5C 60.2794,111.455 61.6127,108.789 63.5,106.5C 65.7925,106.756 67.9592,106.423 70,105.5C 70.195,106.819 70.0283,108.153 69.5,109.5 Z"/></g>
<g><path style="opacity:1" fill="#a74b48" d="M 108.5,87.5 C 105.927,105.51 103.261,123.51 100.5,141.5C 100.173,146.492 98.8394,151.159 96.5,155.5C 94.808,156.969 92.808,157.635 90.5,157.5C 88.9549,157.489 87.6216,157.156 86.5,156.5C 90.6971,157.25 94.0305,155.917 96.5,152.5C 97.8319,145.046 99.1652,137.712 100.5,130.5C 102.027,118.65 103.361,106.65 104.5,94.5C 103.223,93.0783 103.557,92.0783 105.5,91.5C 106.5,90.1667 107.5,88.8333 108.5,87.5 Z"/></g>
<g><path style="opacity:1" fill="#94495c" d="M 111.5,94.5 C 112.799,97.3953 114.465,100.062 116.5,102.5C 117.509,109.712 118.675,117.045 120,124.5C 120.852,125.571 121.685,126.571 122.5,127.5C 122.5,128.5 122.5,129.5 122.5,130.5C 122.5,131.167 122.5,131.833 122.5,132.5C 120.163,130.035 118.663,127.035 118,123.5C 115.672,113.855 113.505,104.188 111.5,94.5 Z"/></g>
<g><path style="opacity:1" fill="#3d1863" d="M 183.5,106.5 C 184.263,107.268 185.263,107.768 186.5,108C 185.733,109.47 185.067,110.97 184.5,112.5C 181.09,112.384 179.756,114.05 180.5,117.5C 178.833,117.5 177.167,117.5 175.5,117.5C 173.784,115.975 171.784,114.975 169.5,114.5C 172.347,109.989 176.347,106.989 181.5,105.5C 182.183,105.863 182.85,106.196 183.5,106.5 Z"/></g>
<g><path style="opacity:1" fill="#ded5e4" d="M 202.5,77.5 C 206.092,84.856 205.592,92.1893 201,99.5C 193.607,108.058 185.774,116.058 177.5,123.5C 176.833,123.5 176.167,123.5 175.5,123.5C 178.822,120.366 181.822,117.033 184.5,113.5C 188.833,109.833 192.833,105.833 196.5,101.5C 203.174,94.7887 205.174,86.7887 202.5,77.5 Z"/></g>
<g><path style="opacity:1" fill="#d26528" d="M 66.5,102.5 C 68.7354,102.205 70.7354,102.539 72.5,103.5C 70.5853,103.216 68.9187,103.549 67.5,104.5C 66.0048,104.989 64.6715,105.655 63.5,106.5C 61.6127,108.789 60.2794,111.455 59.5,114.5C 58.7281,115.694 57.7281,116.694 56.5,117.5C 57.4345,113.627 58.9345,109.961 61,106.5C 62.451,104.536 64.2843,103.203 66.5,102.5 Z"/></g>
<g><path style="opacity:1" fill="#f15c0a" d="M 69.5,109.5 C 69.4208,110.93 69.7542,112.264 70.5,113.5C 69.3881,114.265 68.7214,115.265 68.5,116.5C 67.9164,120.334 66.2497,123.667 63.5,126.5C 64.0138,124.488 64.1805,122.488 64,120.5C 63.3333,121.833 62.6667,123.167 62,124.5C 61.5172,123.552 61.3505,122.552 61.5,121.5C 62.2189,119.909 63.2189,118.409 64.5,117C 64.1667,116.667 63.8333,116.333 63.5,116C 64.7434,113.966 66.2434,113.133 68,113.5C 68.6838,112.216 68.5171,111.049 67.5,110C 68.0944,109.536 68.7611,109.369 69.5,109.5 Z"/></g>
<g><path style="opacity:1" fill="#ecd8eb" d="M 144.5,102.5 C 144.5,103.167 144.5,103.833 144.5,104.5C 142.52,113.611 140.02,122.611 137,131.5C 133.112,135.327 128.946,135.994 124.5,133.5C 127.187,133.664 129.854,133.497 132.5,133C 133.416,132.722 134.082,132.222 134.5,131.5C 135.892,129.727 137.059,127.727 138,125.5C 139.299,117.455 141.466,109.788 144.5,102.5 Z"/></g>
<g><path style="opacity:1" fill="#b43f3a" d="M 103.5,80.5 C 104.167,81.5 104.833,82.5 105.5,83.5C 105.208,85.9572 105.208,88.6239 105.5,91.5C 103.557,92.0783 103.223,93.0783 104.5,94.5C 103.361,106.65 102.027,118.65 100.5,130.5C 100.08,125.267 100.08,119.933 100.5,114.5C 100.5,113.833 100.5,113.167 100.5,112.5C 100.269,108.008 100.936,103.675 102.5,99.5C 102.48,98.2739 102.147,97.2739 101.5,96.5C 101.854,94.4588 101.854,92.6255 101.5,91C 102.167,90.3333 102.833,89.6667 103.5,89C 102.6,85.9058 102.6,83.0724 103.5,80.5 Z"/></g>
<g><path style="opacity:1" fill="#faead1" d="M 59.5,84.5 C 50.4994,95.1669 40.8327,105.167 30.5,114.5C 29.8333,114.5 29.1667,114.5 28.5,114.5C 32.5,110.167 36.5,105.833 40.5,101.5C 43.027,99.3946 45.3603,97.0613 47.5,94.5C 50.5454,91.7823 53.5454,89.1156 56.5,86.5C 57.5,85.8333 58.5,85.1667 59.5,84.5 Z"/></g>
<g><path style="opacity:1" fill="#f1d7d5" d="M 108.5,86.5 C 109.167,86.5 109.833,86.5 110.5,86.5C 110.833,89.1667 111.167,91.8333 111.5,94.5C 110.732,93.7375 110.232,92.7375 110,91.5C 107.148,108.263 104.648,124.93 102.5,141.5C 101.833,141.5 101.167,141.5 100.5,141.5C 103.261,123.51 105.927,105.51 108.5,87.5C 108.5,87.1667 108.5,86.8333 108.5,86.5 Z"/></g>
<g><path style="opacity:1" fill="#822a68" d="M 130.5,106.5 C 130.282,111.073 131.282,115.239 133.5,119C 131.955,120.688 130.955,122.688 130.5,125C 131.094,125.464 131.761,125.631 132.5,125.5C 132.5,126.833 132.5,128.167 132.5,129.5C 131.5,129.5 130.5,129.5 129.5,129.5C 128.816,125.156 128.482,120.656 128.5,116C 129.167,115.667 129.833,115.333 130.5,115C 126.908,113.672 126.575,111.838 129.5,109.5C 129.5,109.167 129.5,108.833 129.5,108.5C 129.328,107.508 129.662,106.842 130.5,106.5 Z"/></g>
<g><path style="opacity:1" fill="#c84933" d="M 100.5,112.5 C 100.5,113.167 100.5,113.833 100.5,114.5C 97.824,127.397 95.324,140.397 93,153.5C 91.7009,154.98 90.0342,155.646 88,155.5C 85.9919,155.693 84.4919,155.026 83.5,153.5C 84.1667,153.5 84.8333,153.5 85.5,153.5C 87.4888,154.887 89.3221,154.553 91,152.5C 91.4221,150.645 91.9221,148.811 92.5,147C 91.6995,145.212 91.3662,143.545 91.5,142C 92.5,141.667 93.5,141.333 94.5,141C 92.9559,140.71 91.6226,140.044 90.5,139C 90.0488,137.011 90.7155,135.177 92.5,133.5C 93.2891,133.217 93.9558,132.717 94.5,132C 94.5218,130.036 94.1885,127.869 93.5,125.5C 93.7092,124.006 94.3759,122.839 95.5,122C 95.3703,117.537 95.3703,113.037 95.5,108.5C 96.3844,105.977 97.2177,103.31 98,100.5C 98.2511,102.433 98.7511,104.266 99.5,106C 96.7927,108.696 97.126,110.862 100.5,112.5 Z"/></g>
<g><path style="opacity:1" fill="#92335f" d="M 122.5,93.5 C 123.933,98.3784 125.266,103.378 126.5,108.5C 125.448,111.89 124.448,115.39 123.5,119C 124.167,119.333 124.833,119.667 125.5,120C 124.167,122.333 124.167,124.667 125.5,127C 125.026,128.729 124.026,129.895 122.5,130.5C 122.5,129.5 122.5,128.5 122.5,127.5C 123.583,116.418 123.583,105.085 122.5,93.5 Z"/></g>
<g><path style="opacity:1" fill="#e2a476" d="M 10.5,113.5 C 9.56666,116.37 7.89999,118.704 5.5,120.5C 6.43334,117.63 8.10001,115.296 10.5,113.5 Z"/></g>
<g><path style="opacity:1" fill="#7e276b" d="M 134.5,102.5 C 134.414,103.496 134.748,104.329 135.5,105C 134.426,105.739 133.759,106.739 133.5,108C 134.354,110.575 135.354,113.075 136.5,115.5C 133.875,116.458 133.875,117.624 136.5,119C 135.151,119.772 134.318,120.939 134,122.5C 133.667,122.167 133.333,121.833 133,121.5C 132.51,122.793 132.343,124.127 132.5,125.5C 131.761,125.631 131.094,125.464 130.5,125C 130.955,122.688 131.955,120.688 133.5,119C 131.282,115.239 130.282,111.073 130.5,106.5C 131.249,105.469 131.915,104.302 132.5,103C 133.094,102.536 133.761,102.369 134.5,102.5 Z"/></g>
<g><path style="opacity:1" fill="#f75c04" d="M 24.5,112.5 C 24.719,113.675 24.3857,114.675 23.5,115.5C 22.2613,115.942 21.2613,116.609 20.5,117.5C 18.4163,119.077 16.4163,120.91 14.5,123C 12.6768,123.132 11.6768,122.132 11.5,120C 13.0857,117.819 15.0857,116.152 17.5,115C 15.3808,114.658 15.0474,113.825 16.5,112.5C 17.1451,111.188 18.1451,110.188 19.5,109.5C 22.2104,110.027 23.8771,111.027 24.5,112.5 Z"/></g>
<g><path style="opacity:1" fill="#873364" d="M 126.5,108.5 C 126.833,108.5 127.167,108.5 127.5,108.5C 127.842,109.338 128.508,109.672 129.5,109.5C 126.575,111.838 126.908,113.672 130.5,115C 129.833,115.333 129.167,115.667 128.5,116C 128.482,120.656 128.816,125.156 129.5,129.5C 130.5,129.5 131.5,129.5 132.5,129.5C 132.833,130.5 133.5,131.167 134.5,131.5C 134.082,132.222 133.416,132.722 132.5,133C 129.854,133.497 127.187,133.664 124.5,133.5C 123.508,133.672 122.842,133.338 122.5,132.5C 122.5,131.833 122.5,131.167 122.5,130.5C 124.026,129.895 125.026,128.729 125.5,127C 124.167,124.667 124.167,122.333 125.5,120C 124.833,119.667 124.167,119.333 123.5,119C 124.448,115.39 125.448,111.89 126.5,108.5 Z"/></g>
<g><path style="opacity:1" fill="#6e2766" d="M 147.5,92.5 C 146.5,95.8333 145.5,99.1667 144.5,102.5C 141.466,109.788 139.299,117.455 138,125.5C 137.059,127.727 135.892,129.727 134.5,131.5C 133.5,131.167 132.833,130.5 132.5,129.5C 132.5,128.167 132.5,126.833 132.5,125.5C 132.343,124.127 132.51,122.793 133,121.5C 133.333,121.833 133.667,122.167 134,122.5C 134.318,120.939 135.151,119.772 136.5,119C 133.875,117.624 133.875,116.458 136.5,115.5C 137.167,113.5 137.833,111.5 138.5,109.5C 138.351,110.552 138.517,111.552 139,112.5C 140.891,109.129 142.058,105.462 142.5,101.5C 143.619,98.0925 145.285,95.0925 147.5,92.5 Z"/></g>
<g><path style="opacity:1" fill="#fae7cc" d="M 28.5,114.5 C 29.1667,114.5 29.8333,114.5 30.5,114.5C 27.9168,118.589 24.7501,122.256 21,125.5C 18.5542,128.597 18.0542,131.931 19.5,135.5C 15.9747,131.81 15.6414,127.81 18.5,123.5C 21.8333,120.5 25.1667,117.5 28.5,114.5 Z"/></g>
<g><path style="opacity:1" fill="#eec4ad" d="M 83.5,113.5 C 85.9667,118.13 87.6334,123.13 88.5,128.5C 86.6396,124.917 84.9729,121.251 83.5,117.5C 83.5,116.167 83.5,114.833 83.5,113.5 Z"/></g>
<g><path style="opacity:1" fill="#e6581b" d="M 74.5,103.5 C 76.9354,104.27 78.2687,105.937 78.5,108.5C 78.5858,109.496 78.2524,110.329 77.5,111C 78.9129,114.177 80.2462,117.344 81.5,120.5C 79.8042,120.685 78.4709,121.519 77.5,123C 78.591,125.107 78.591,127.607 77.5,130.5C 76.284,126.893 74.9507,123.226 73.5,119.5C 74.1667,119.5 74.8333,119.5 75.5,119.5C 77.2591,121.984 78.2591,121.484 78.5,118C 77.3028,113.059 75.9695,108.226 74.5,103.5 Z"/></g>
<g><path style="opacity:1" fill="#4a1a6a" d="M 168.5,114.5 C 168.833,114.5 169.167,114.5 169.5,114.5C 171.784,114.975 173.784,115.975 175.5,117.5C 175.5,118.833 175.5,120.167 175.5,121.5C 173.708,121.366 172.042,121.699 170.5,122.5C 169.124,122.747 168.29,124.081 168,126.5C 167.722,125.584 167.222,124.918 166.5,124.5C 166.082,123.778 165.416,123.278 164.5,123C 166.605,121.665 167.271,119.998 166.5,118C 167.305,116.887 167.972,115.721 168.5,114.5 Z"/></g>
<g><path style="opacity:1" fill="#f05e06" d="M 16.5,112.5 C 15.0474,113.825 15.3808,114.658 17.5,115C 15.0857,116.152 13.0857,117.819 11.5,120C 11.6768,122.132 12.6768,123.132 14.5,123C 16.4163,120.91 18.4163,119.077 20.5,117.5C 20.2964,119.685 19.6298,121.685 18.5,123.5C 17.5041,123.414 16.6708,123.748 16,124.5C 15.5017,127.817 15.335,131.15 15.5,134.5C 14.6829,132.031 14.1829,129.365 14,126.5C 13.6667,126.833 13.3333,127.167 13,127.5C 12,125.833 11,124.167 10,122.5C 8.38761,122.952 7.38761,124.285 7,126.5C 6.50166,129.817 6.33499,133.15 6.5,136.5C 3.85607,128.659 5.52274,121.993 11.5,116.5C 13.1793,115.084 14.8459,113.75 16.5,112.5 Z"/></g>
<g><path style="opacity:1" fill="#e35725" d="M 78.5,108.5 C 80.3133,111.439 81.98,114.439 83.5,117.5C 83.5,118.833 83.5,120.167 83.5,121.5C 84.3541,127.812 85.0207,134.145 85.5,140.5C 84.8179,137.515 83.8179,134.515 82.5,131.5C 82.8333,130.833 83.1667,130.167 83.5,129.5C 81.8702,126.724 81.2035,123.724 81.5,120.5C 80.2462,117.344 78.9129,114.177 77.5,111C 78.2524,110.329 78.5858,109.496 78.5,108.5 Z"/></g>
<g><path style="opacity:1" fill="#c2503e" d="M 100.5,114.5 C 100.08,119.933 100.08,125.267 100.5,130.5C 99.1652,137.712 97.8319,145.046 96.5,152.5C 94.0305,155.917 90.6971,157.25 86.5,156.5C 85.8333,156.5 85.1667,156.5 84.5,156.5C 81.1639,152.901 79.1639,148.568 78.5,143.5C 81.1657,146.164 82.8324,149.497 83.5,153.5C 84.4919,155.026 85.9919,155.693 88,155.5C 90.0342,155.646 91.7009,154.98 93,153.5C 95.324,140.397 97.824,127.397 100.5,114.5 Z"/></g>
<g><path style="opacity:1" fill="#ee5a06" d="M 59.5,114.5 C 59.8844,116.929 60.551,119.263 61.5,121.5C 61.3505,122.552 61.5172,123.552 62,124.5C 62.6667,123.167 63.3333,121.833 64,120.5C 64.1805,122.488 64.0138,124.488 63.5,126.5C 63.2041,128.403 62.5375,130.07 61.5,131.5C 60.8333,131.833 60.1667,132.167 59.5,132.5C 58.9569,132.44 58.6236,132.107 58.5,131.5C 59.311,130.784 59.9777,129.95 60.5,129C 59.8729,126.865 59.3729,124.698 59,122.5C 57.8118,123.563 57.3118,124.897 57.5,126.5C 56.5,126.5 55.5,126.5 54.5,126.5C 55.7496,123.994 56.4162,121.327 56.5,118.5C 56.5,118.167 56.5,117.833 56.5,117.5C 57.7281,116.694 58.7281,115.694 59.5,114.5 Z"/></g>
<g><path style="opacity:1" fill="#4c2964" d="M 184.5,112.5 C 184.5,112.833 184.5,113.167 184.5,113.5C 181.822,117.033 178.822,120.366 175.5,123.5C 173.167,126.5 170.5,129.167 167.5,131.5C 167.5,130.167 167.5,128.833 167.5,127.5C 169.408,126.514 170.408,124.848 170.5,122.5C 172.042,121.699 173.708,121.366 175.5,121.5C 175.5,120.167 175.5,118.833 175.5,117.5C 177.167,117.5 178.833,117.5 180.5,117.5C 179.756,114.05 181.09,112.384 184.5,112.5 Z"/></g>
<g><path style="opacity:1" fill="#511b62" d="M 167.5,114.5 C 167.833,114.5 168.167,114.5 168.5,114.5C 167.972,115.721 167.305,116.887 166.5,118C 167.271,119.998 166.605,121.665 164.5,123C 165.416,123.278 166.082,123.778 166.5,124.5C 165.178,124.33 164.011,124.663 163,125.5C 162.692,124.692 162.192,124.025 161.5,123.5C 161.12,125.021 160.954,126.687 161,128.5C 160.333,131.167 159.667,131.167 159,128.5C 158.5,129.667 157.667,130.5 156.5,131C 157.056,131.383 157.389,131.883 157.5,132.5C 157.5,132.833 157.5,133.167 157.5,133.5C 155.947,131.615 153.947,130.615 151.5,130.5C 156.5,124.833 161.833,119.5 167.5,114.5 Z"/></g>
<g><path style="opacity:1" fill="#511968" d="M 170.5,122.5 C 170.408,124.848 169.408,126.514 167.5,127.5C 166.577,126.697 165.577,126.53 164.5,127C 166.421,128.241 166.754,129.741 165.5,131.5C 163.539,129.457 162.039,130.123 161,133.5C 159.989,132.663 158.822,132.33 157.5,132.5C 157.389,131.883 157.056,131.383 156.5,131C 157.667,130.5 158.5,129.667 159,128.5C 159.667,131.167 160.333,131.167 161,128.5C 160.954,126.687 161.12,125.021 161.5,123.5C 162.192,124.025 162.692,124.692 163,125.5C 164.011,124.663 165.178,124.33 166.5,124.5C 167.222,124.918 167.722,125.584 168,126.5C 168.29,124.081 169.124,122.747 170.5,122.5 Z"/></g>
<g><path style="opacity:1" fill="#d06328" d="M 73.5,119.5 C 74.9507,123.226 76.284,126.893 77.5,130.5C 77.448,132.903 77.7814,135.236 78.5,137.5C 77.8333,137.167 77.1667,136.833 76.5,136.5C 76.5905,133.848 75.9238,131.515 74.5,129.5C 73.6373,127.579 72.9707,125.579 72.5,123.5C 72.6427,121.738 72.3094,120.071 71.5,118.5C 70.8333,117.167 70.1667,117.167 69.5,118.5C 67.3301,124.173 64.6635,129.506 61.5,134.5C 61.5,133.5 61.5,132.5 61.5,131.5C 62.5375,130.07 63.2041,128.403 63.5,126.5C 66.2497,123.667 67.9164,120.334 68.5,116.5C 69.7079,115.766 71.0413,115.433 72.5,115.5C 72.4326,116.959 72.7659,118.292 73.5,119.5 Z"/></g>
<g><path style="opacity:1" fill="#c75438" d="M 95.5,104.5 C 95.5,105.833 95.5,107.167 95.5,108.5C 95.3703,113.037 95.3703,117.537 95.5,122C 94.3759,122.839 93.7092,124.006 93.5,125.5C 94.1885,127.869 94.5218,130.036 94.5,132C 93.9558,132.717 93.2891,133.217 92.5,133.5C 91.2928,132.811 89.9594,132.645 88.5,133C 87.6006,131.348 86.6006,129.848 85.5,128.5C 85.5905,125.848 84.9238,123.515 83.5,121.5C 83.5,120.167 83.5,118.833 83.5,117.5C 84.9729,121.251 86.6396,124.917 88.5,128.5C 89.1795,132.1 90.0128,131.767 91,127.5C 92.2808,119.652 93.7808,111.985 95.5,104.5 Z"/></g>
<g><path style="opacity:1" fill="#f5620b" d="M 59.5,132.5 C 58.9935,133.859 57.9935,134.859 56.5,135.5C 55.7542,136.736 55.4208,138.07 55.5,139.5C 53.6776,139.831 52.0109,140.498 50.5,141.5C 47.7543,139.874 44.7543,139.207 41.5,139.5C 41.5,138.833 41.5,138.167 41.5,137.5C 42.9217,137.291 44.255,136.791 45.5,136C 48.6407,132.813 51.6407,129.646 54.5,126.5C 55.5,126.5 56.5,126.5 57.5,126.5C 57.3118,124.897 57.8118,123.563 59,122.5C 59.3729,124.698 59.8729,126.865 60.5,129C 59.9777,129.95 59.311,130.784 58.5,131.5C 58.6236,132.107 58.9569,132.44 59.5,132.5 Z"/></g>
<g><path style="opacity:1" fill="#e5551b" d="M 81.5,120.5 C 81.2035,123.724 81.8702,126.724 83.5,129.5C 83.1667,130.167 82.8333,130.833 82.5,131.5C 83.8179,134.515 84.8179,137.515 85.5,140.5C 83.6525,146.935 81.9858,146.935 80.5,140.5C 80.0431,139.702 79.3764,139.369 78.5,139.5C 78.5,138.833 78.5,138.167 78.5,137.5C 77.7814,135.236 77.448,132.903 77.5,130.5C 78.591,127.607 78.591,125.107 77.5,123C 78.4709,121.519 79.8042,120.685 81.5,120.5 Z"/></g>
<g><path style="opacity:1" fill="#f96204" d="M 15.5,134.5 C 14.5384,136.986 13.7051,136.986 13,134.5C 12.6667,135.167 12.3333,135.833 12,136.5C 10.3605,137.125 8.52714,137.125 6.5,136.5C 6.33499,133.15 6.50166,129.817 7,126.5C 7.38761,124.285 8.38761,122.952 10,122.5C 11,124.167 12,125.833 13,127.5C 13.3333,127.167 13.6667,126.833 14,126.5C 14.1829,129.365 14.6829,132.031 15.5,134.5 Z"/></g>
<g><path style="opacity:1" fill="#d17033" d="M 56.5,118.5 C 56.4162,121.327 55.7496,123.994 54.5,126.5C 51.6407,129.646 48.6407,132.813 45.5,136C 44.255,136.791 42.9217,137.291 41.5,137.5C 47.6936,132.115 52.6936,125.781 56.5,118.5 Z"/></g>
<g><path style="opacity:1" fill="#f2c8a9" d="M 74.5,129.5 C 75.9238,131.515 76.5905,133.848 76.5,136.5C 74.8372,134.562 74.1706,132.228 74.5,129.5 Z"/></g>
<g><path style="opacity:1" fill="#562867" d="M 167.5,127.5 C 167.5,128.833 167.5,130.167 167.5,131.5C 164.167,135.5 160.5,139.167 156.5,142.5C 156.5,140.833 156.5,139.167 156.5,137.5C 157.833,137.5 159.167,137.5 160.5,137.5C 160.649,136.448 160.483,135.448 160,134.5C 159.049,134.116 158.216,133.783 157.5,133.5C 157.5,133.167 157.5,132.833 157.5,132.5C 158.822,132.33 159.989,132.663 161,133.5C 162.039,130.123 163.539,129.457 165.5,131.5C 166.754,129.741 166.421,128.241 164.5,127C 165.577,126.53 166.577,126.697 167.5,127.5 Z"/></g>
<g><path style="opacity:1" fill="#d37131" d="M 30.5,94.5 C 29.8902,95.391 29.5569,96.391 29.5,97.5C 28.5,97.8333 27.8333,98.5 27.5,99.5C 21.3845,104.61 16.0512,110.277 11.5,116.5C 5.52274,121.993 3.85607,128.659 6.5,136.5C 7.12835,139.09 8.29501,141.423 10,143.5C 11.0113,144.337 12.1779,144.67 13.5,144.5C 13.5,145.833 13.5,147.167 13.5,148.5C 6.68281,143.198 3.34948,136.198 3.5,127.5C 3.1658,124.812 3.83247,122.479 5.5,120.5C 7.89999,118.704 9.56666,116.37 10.5,113.5C 17.1871,107.145 23.8538,100.812 30.5,94.5 Z"/></g>
<g><path style="opacity:1" fill="#611f6e" d="M 151.5,130.5 C 153.947,130.615 155.947,131.615 157.5,133.5C 158.216,133.783 159.049,134.116 160,134.5C 160.483,135.448 160.649,136.448 160.5,137.5C 159.167,137.5 157.833,137.5 156.5,137.5C 156.5,139.167 156.5,140.833 156.5,142.5C 155.259,140.069 154.092,140.069 153,142.5C 152.365,141.034 151.531,139.7 150.5,138.5C 152.253,135.861 152.586,133.195 151.5,130.5 Z"/></g>
<g><path style="opacity:1" fill="#eebe92" d="M 19.5,135.5 C 21.5,136.833 23.1667,138.5 24.5,140.5C 21.8333,139.833 20.1667,138.167 19.5,135.5 Z"/></g>
<g><path style="opacity:1" fill="#db5427" d="M 83.5,121.5 C 84.9238,123.515 85.5905,125.848 85.5,128.5C 86.9569,133.345 87.2902,137.845 86.5,142C 86.4393,143.711 87.1059,145.044 88.5,146C 87.8333,147 87.1667,148 86.5,149C 87.9156,150.915 87.5822,152.415 85.5,153.5C 84.8333,153.5 84.1667,153.5 83.5,153.5C 82.8324,149.497 81.1657,146.164 78.5,143.5C 78.5,143.167 78.5,142.833 78.5,142.5C 78.5,141.5 78.5,140.5 78.5,139.5C 79.3764,139.369 80.0431,139.702 80.5,140.5C 81.9858,146.935 83.6525,146.935 85.5,140.5C 85.0207,134.145 84.3541,127.812 83.5,121.5 Z"/></g>
<g><path style="opacity:1" fill="#da956e" d="M 76.5,136.5 C 77.1667,136.833 77.8333,137.167 78.5,137.5C 78.5,138.167 78.5,138.833 78.5,139.5C 78.5,140.5 78.5,141.5 78.5,142.5C 77.2616,140.786 76.595,138.786 76.5,136.5 Z"/></g>
<g><path style="opacity:1" fill="#e4671a" d="M 18.5,123.5 C 15.6414,127.81 15.9747,131.81 19.5,135.5C 20.1667,138.167 21.8333,139.833 24.5,140.5C 25.8786,142.597 27.5453,142.93 29.5,141.5C 33.6983,140.733 37.6983,139.399 41.5,137.5C 41.5,138.167 41.5,138.833 41.5,139.5C 35.2344,143.029 28.5677,144.029 21.5,142.5C 19.6724,140.839 17.6724,139.172 15.5,137.5C 13.2985,139.056 13.2985,140.223 15.5,141C 15.0426,141.414 14.7093,141.914 14.5,142.5C 16.295,145.924 17.9617,149.424 19.5,153C 24.1085,154.712 28.7751,154.879 33.5,153.5C 33.5,153.833 33.5,154.167 33.5,154.5C 30.1251,154.767 26.9584,155.767 24,157.5C 19.7306,155.397 16.2306,152.397 13.5,148.5C 13.5,147.167 13.5,145.833 13.5,144.5C 12.1779,144.67 11.0113,144.337 10,143.5C 8.29501,141.423 7.12835,139.09 6.5,136.5C 8.52714,137.125 10.3605,137.125 12,136.5C 12.3333,135.833 12.6667,135.167 13,134.5C 13.7051,136.986 14.5384,136.986 15.5,134.5C 15.335,131.15 15.5017,127.817 16,124.5C 16.6708,123.748 17.5041,123.414 18.5,123.5 Z"/></g>
<g><path style="opacity:1" fill="#f9edf9" d="M 175.5,123.5 C 176.167,123.5 176.833,123.5 177.5,123.5C 165.833,135.833 153.833,147.833 141.5,159.5C 141.5,159.167 141.5,158.833 141.5,158.5C 141.5,158.167 141.5,157.833 141.5,157.5C 146.833,152.833 151.833,147.833 156.5,142.5C 160.5,139.167 164.167,135.5 167.5,131.5C 170.5,129.167 173.167,126.5 175.5,123.5 Z"/></g>
<g><path style="opacity:1" fill="#68286a" d="M 151.5,130.5 C 152.586,133.195 152.253,135.861 150.5,138.5C 151.531,139.7 152.365,141.034 153,142.5C 154.092,140.069 155.259,140.069 156.5,142.5C 151.833,147.833 146.833,152.833 141.5,157.5C 141.5,156.5 141.5,155.5 141.5,154.5C 142.172,153.733 143.005,153.066 144,152.5C 144.216,150.616 144.883,148.949 146,147.5C 147.183,148.731 148.349,148.731 149.5,147.5C 149.284,144.401 149.284,141.234 149.5,138C 148.874,137.25 148.374,136.416 148,135.5C 144.296,139.036 140.796,142.702 137.5,146.5C 137.167,146.5 136.833,146.5 136.5,146.5C 136.167,146.5 135.833,146.5 135.5,146.5C 140.5,140.833 145.833,135.5 151.5,130.5 Z"/></g>
<g><path style="opacity:1" fill="#f6c597" d="M 24.5,140.5 C 26.1172,141.038 27.7839,141.371 29.5,141.5C 27.5453,142.93 25.8786,142.597 24.5,140.5 Z"/></g>
<g><path style="opacity:1" fill="#f5e0d9" d="M 100.5,141.5 C 101.167,141.5 101.833,141.5 102.5,141.5C 102.555,147.801 100.555,153.301 96.5,158C 91.9753,160.408 87.9753,159.908 84.5,156.5C 85.1667,156.5 85.8333,156.5 86.5,156.5C 87.6216,157.156 88.9549,157.489 90.5,157.5C 92.808,157.635 94.808,156.969 96.5,155.5C 98.8394,151.159 100.173,146.492 100.5,141.5 Z"/></g>
<g><path style="opacity:1" fill="#f9e2c6" d="M 72.5,123.5 C 71.603,122.402 70.7697,122.402 70,123.5C 64.3466,138.32 54.1799,148.653 39.5,154.5C 37.5,154.5 35.5,154.5 33.5,154.5C 33.5,154.167 33.5,153.833 33.5,153.5C 45.5343,151.149 54.8677,144.816 61.5,134.5C 64.6635,129.506 67.3301,124.173 69.5,118.5C 70.1667,117.167 70.8333,117.167 71.5,118.5C 72.3094,120.071 72.6427,121.738 72.5,123.5 Z"/></g>
<g><path style="opacity:1" fill="#ef5b05" d="M 41.5,139.5 C 41.4894,141.017 40.8228,142.184 39.5,143C 36.9533,144.441 34.4533,144.941 32,144.5C 31.5357,145.094 31.369,145.761 31.5,146.5C 28.6634,146.271 25.6634,146.104 22.5,146C 21.6634,144.989 21.33,143.822 21.5,142.5C 28.5677,144.029 35.2344,143.029 41.5,139.5 Z"/></g>
<g><path style="opacity:1" fill="#f56009" d="M 21.5,142.5 C 21.33,143.822 21.6634,144.989 22.5,146C 25.6634,146.104 28.6634,146.271 31.5,146.5C 33.4109,146.574 34.5776,147.574 35,149.5C 35.3333,148.833 35.6667,148.167 36,147.5C 36.4839,149.178 37.3172,149.844 38.5,149.5C 36.2889,150.111 34.6223,151.444 33.5,153.5C 28.7751,154.879 24.1085,154.712 19.5,153C 17.9617,149.424 16.295,145.924 14.5,142.5C 14.7093,141.914 15.0426,141.414 15.5,141C 13.2985,140.223 13.2985,139.056 15.5,137.5C 17.6724,139.172 19.6724,140.839 21.5,142.5 Z"/></g>
<g><path style="opacity:1" fill="#d34f2f" d="M 85.5,128.5 C 86.6006,129.848 87.6006,131.348 88.5,133C 89.9594,132.645 91.2928,132.811 92.5,133.5C 90.7155,135.177 90.0488,137.011 90.5,139C 91.6226,140.044 92.9559,140.71 94.5,141C 93.5,141.333 92.5,141.667 91.5,142C 91.3662,143.545 91.6995,145.212 92.5,147C 91.9221,148.811 91.4221,150.645 91,152.5C 89.3221,154.553 87.4888,154.887 85.5,153.5C 87.5822,152.415 87.9156,150.915 86.5,149C 87.1667,148 87.8333,147 88.5,146C 87.1059,145.044 86.4393,143.711 86.5,142C 87.2902,137.845 86.9569,133.345 85.5,128.5 Z"/></g>
<g><path style="opacity:1" fill="#74236e" d="M 141.5,154.5 C 140.711,154.217 140.044,153.717 139.5,153C 139.5,151.333 139.5,149.667 139.5,148C 138.956,147.283 138.289,146.783 137.5,146.5C 140.796,142.702 144.296,139.036 148,135.5C 148.374,136.416 148.874,137.25 149.5,138C 149.284,141.234 149.284,144.401 149.5,147.5C 148.349,148.731 147.183,148.731 146,147.5C 144.883,148.949 144.216,150.616 144,152.5C 143.005,153.066 142.172,153.733 141.5,154.5 Z"/></g>
<g><path style="opacity:1" fill="#f55a04" d="M 41.5,139.5 C 44.7543,139.207 47.7543,139.874 50.5,141.5C 50.5,142.5 50.5,143.5 50.5,144.5C 49.5,144.5 48.5,144.5 47.5,144.5C 47.5,145.5 47.5,146.5 47.5,147.5C 44.4606,148.01 41.4606,148.677 38.5,149.5C 37.3172,149.844 36.4839,149.178 36,147.5C 35.6667,148.167 35.3333,148.833 35,149.5C 34.5776,147.574 33.4109,146.574 31.5,146.5C 31.369,145.761 31.5357,145.094 32,144.5C 34.4533,144.941 36.9533,144.441 39.5,143C 40.8228,142.184 41.4894,141.017 41.5,139.5 Z"/></g>
<g><path style="opacity:1" fill="#ecc2a2" d="M 56.5,150.5 C 57.9473,149.115 58.9473,149.448 59.5,151.5C 58.609,150.89 57.609,150.557 56.5,150.5 Z"/></g>
<g><path style="opacity:1" fill="#dd641f" d="M 61.5,131.5 C 61.5,132.5 61.5,133.5 61.5,134.5C 54.8677,144.816 45.5343,151.149 33.5,153.5C 34.6223,151.444 36.2889,150.111 38.5,149.5C 41.4606,148.677 44.4606,148.01 47.5,147.5C 47.5,146.5 47.5,145.5 47.5,144.5C 48.5,144.5 49.5,144.5 50.5,144.5C 50.5,143.5 50.5,142.5 50.5,141.5C 52.0109,140.498 53.6776,139.831 55.5,139.5C 55.4208,138.07 55.7542,136.736 56.5,135.5C 57.9935,134.859 58.9935,133.859 59.5,132.5C 60.1667,132.167 60.8333,131.833 61.5,131.5 Z"/></g>
<g><path style="opacity:1" fill="#ce6a30" d="M 56.5,150.5 C 57.609,150.557 58.609,150.89 59.5,151.5C 61.1436,151.81 62.1436,152.81 62.5,154.5C 63.1667,156.167 63.8333,157.833 64.5,159.5C 62.3757,157.941 60.709,155.941 59.5,153.5C 57.6837,152.265 56.017,152.265 54.5,153.5C 53.609,154.11 52.609,154.443 51.5,154.5C 52.5794,152.457 54.246,151.124 56.5,150.5 Z"/></g>
<g><path style="opacity:1" fill="#f9ebd1" d="M 3.5,127.5 C 3.34948,136.198 6.68281,143.198 13.5,148.5C 16.2306,152.397 19.7306,155.397 24,157.5C 26.9584,155.767 30.1251,154.767 33.5,154.5C 35.5,154.5 37.5,154.5 39.5,154.5C 35.6483,156.057 31.6483,157.557 27.5,159C 24.6967,159.755 22.0301,159.422 19.5,158C 13.951,153.118 9.11771,147.618 5,141.5C 2.54202,136.887 2.04202,132.221 3.5,127.5 Z"/></g>
<g><path style="opacity:1" fill="#832a61" d="M 135.5,146.5 C 135.833,146.5 136.167,146.5 136.5,146.5C 135.387,149.015 134.387,151.515 133.5,154C 133.591,155.814 133.925,157.647 134.5,159.5C 133.275,160.937 132.275,162.604 131.5,164.5C 130.272,166.321 128.606,167.321 126.5,167.5C 126.196,166.85 125.863,166.183 125.5,165.5C 126.737,164.719 127.737,163.719 128.5,162.5C 127.691,160.208 127.357,158.041 127.5,156C 129.79,154.223 131.457,152.056 132.5,149.5C 133.272,148.306 134.272,147.306 135.5,146.5 Z"/></g>
<g><path style="opacity:1" fill="#cd6427" d="M 51.5,154.5 C 50.1667,156.5 50.1667,158.5 51.5,160.5C 50.078,159.075 48.4113,158.075 46.5,157.5C 47.6594,155.75 49.326,154.75 51.5,154.5 Z"/></g>
<g><path style="opacity:1" fill="#7f2b6c" d="M 136.5,146.5 C 136.833,146.5 137.167,146.5 137.5,146.5C 138.289,146.783 138.956,147.283 139.5,148C 139.5,149.667 139.5,151.333 139.5,153C 140.044,153.717 140.711,154.217 141.5,154.5C 141.5,155.5 141.5,156.5 141.5,157.5C 140.167,157.5 138.833,157.5 137.5,157.5C 137.598,160.248 136.598,160.914 134.5,159.5C 133.925,157.647 133.591,155.814 133.5,154C 134.387,151.515 135.387,149.015 136.5,146.5 Z"/></g>
<g><path style="opacity:1" fill="#f5620d" d="M 54.5,153.5 C 57.7046,154.13 59.3712,156.13 59.5,159.5C 57.048,161.45 57.048,163.616 59.5,166C 58.944,166.383 58.6107,166.883 58.5,167.5C 58.1667,167.5 57.8333,167.5 57.5,167.5C 56.5336,164.206 54.5336,161.872 51.5,160.5C 50.1667,158.5 50.1667,156.5 51.5,154.5C 52.609,154.443 53.609,154.11 54.5,153.5 Z"/></g>
<g><path style="opacity:1" fill="#e9b78e" d="M 46.5,157.5 C 48.4113,158.075 50.078,159.075 51.5,160.5C 52.1098,161.391 52.4431,162.391 52.5,163.5C 50.1667,161.833 48.1667,159.833 46.5,157.5 Z"/></g>
<g><path style="opacity:1" fill="#f7d9be" d="M 62.5,154.5 C 64.8218,155.802 66.1551,157.802 66.5,160.5C 65.8333,160.167 65.1667,159.833 64.5,159.5C 63.8333,157.833 63.1667,156.167 62.5,154.5 Z"/></g>
<g><path style="opacity:1" fill="#f05c0e" d="M 54.5,153.5 C 56.017,152.265 57.6837,152.265 59.5,153.5C 60.709,155.941 62.3757,157.941 64.5,159.5C 65.0427,162.218 65.7094,164.885 66.5,167.5C 66.6653,171.182 66.4986,174.848 66,178.5C 65.2917,179.381 64.4584,180.047 63.5,180.5C 66.2747,174.037 65.7747,167.704 62,161.5C 61.3333,160.167 60.6667,160.167 60,161.5C 59.5357,160.906 59.369,160.239 59.5,159.5C 59.3712,156.13 57.7046,154.13 54.5,153.5 Z"/></g>
<g><path style="opacity:1" fill="#f65904" d="M 59.5,159.5 C 59.369,160.239 59.5357,160.906 60,161.5C 60.6667,160.167 61.3333,160.167 62,161.5C 65.7747,167.704 66.2747,174.037 63.5,180.5C 64.8333,183.167 64.1667,183.833 61.5,182.5C 59.1202,177.819 58.1202,172.819 58.5,167.5C 58.6107,166.883 58.944,166.383 59.5,166C 57.048,163.616 57.048,161.45 59.5,159.5 Z"/></g>
<g><path style="opacity:1" fill="#d66622" d="M 51.5,160.5 C 54.5336,161.872 56.5336,164.206 57.5,167.5C 57.6655,171.514 57.4988,175.514 57,179.5C 55.0924,182.206 54.259,185.206 54.5,188.5C 53.5,188.167 52.8333,187.5 52.5,186.5C 53.6976,183.574 54.6976,180.574 55.5,177.5C 57.2619,172.288 56.2619,167.622 52.5,163.5C 52.4431,162.391 52.1098,161.391 51.5,160.5 Z"/></g>
<g><path style="opacity:1" fill="#f9e1c6" d="M 66.5,160.5 C 68.1361,161.749 69.3028,163.416 70,165.5C 70.6095,172.189 70.4428,178.856 69.5,185.5C 68.9517,177.229 67.9517,168.895 66.5,160.5 Z"/></g>
<g><path style="opacity:1" fill="#7d3662" d="M 141.5,157.5 C 141.5,157.833 141.5,158.167 141.5,158.5C 135.167,164.5 128.833,170.5 122.5,176.5C 122.557,175.391 122.89,174.391 123.5,173.5C 124.007,172.141 125.007,171.141 126.5,170.5C 125.209,169.473 125.209,168.473 126.5,167.5C 128.606,167.321 130.272,166.321 131.5,164.5C 132.275,162.604 133.275,160.937 134.5,159.5C 136.598,160.914 137.598,160.248 137.5,157.5C 138.833,157.5 140.167,157.5 141.5,157.5 Z"/></g>
<g><path style="opacity:1" fill="#983758" d="M 119.5,162.5 C 121.288,162.215 122.955,162.548 124.5,163.5C 123.691,165.071 123.357,166.738 123.5,168.5C 122.325,168.281 121.325,168.614 120.5,169.5C 121.035,171.261 122.035,172.594 123.5,173.5C 122.89,174.391 122.557,175.391 122.5,176.5C 120.5,179.167 118.167,181.5 115.5,183.5C 115.342,180.455 116.009,177.621 117.5,175C 116.542,173.853 116.875,172.853 118.5,172C 117.242,170.259 116.242,168.426 115.5,166.5C 116.5,164.833 117.833,163.5 119.5,162.5 Z"/></g>
<g><path style="opacity:1" fill="#d06b34" d="M 64.5,159.5 C 65.1667,159.833 65.8333,160.167 66.5,160.5C 67.9517,168.895 68.9517,177.229 69.5,185.5C 69.5,186.167 69.5,186.833 69.5,187.5C 68.8826,187.389 68.3826,187.056 68,186.5C 67.8279,179.987 67.3279,173.653 66.5,167.5C 65.7094,164.885 65.0427,162.218 64.5,159.5 Z"/></g>
<g><path style="opacity:1" fill="#8a2e57" d="M 132.5,149.5 C 131.457,152.056 129.79,154.223 127.5,156C 127.357,158.041 127.691,160.208 128.5,162.5C 127.737,163.719 126.737,164.719 125.5,165.5C 125.863,166.183 126.196,166.85 126.5,167.5C 125.209,168.473 125.209,169.473 126.5,170.5C 125.007,171.141 124.007,172.141 123.5,173.5C 122.035,172.594 121.035,171.261 120.5,169.5C 121.325,168.614 122.325,168.281 123.5,168.5C 123.357,166.738 123.691,165.071 124.5,163.5C 122.955,162.548 121.288,162.215 119.5,162.5C 123.5,157.833 127.833,153.5 132.5,149.5 Z"/></g>
<g><path style="opacity:1" fill="#e7b187" d="M 52.5,163.5 C 56.2619,167.622 57.2619,172.288 55.5,177.5C 55.0072,172.701 54.0072,168.035 52.5,163.5 Z"/></g>
<g><path style="opacity:1" fill="#f5e2ed" d="M 141.5,158.5 C 141.5,158.833 141.5,159.167 141.5,159.5C 132.5,168.833 123.5,178.167 114.5,187.5C 114.5,186.833 114.167,186.5 113.5,186.5C 114.167,185.5 114.833,184.5 115.5,183.5C 118.167,181.5 120.5,179.167 122.5,176.5C 128.833,170.5 135.167,164.5 141.5,158.5 Z"/></g>
<g><path style="opacity:1" fill="#9f3b49" d="M 115.5,166.5 C 116.242,168.426 117.242,170.259 118.5,172C 116.875,172.853 116.542,173.853 117.5,175C 116.009,177.621 115.342,180.455 115.5,183.5C 114.833,184.5 114.167,185.5 113.5,186.5C 109.5,190.167 105.5,193.833 101.5,197.5C 101.446,194.033 102.946,191.366 106,189.5C 107.184,185.106 108.184,180.773 109,176.5C 108.676,178.569 107.842,178.902 106.5,177.5C 104.814,178.857 103.148,180.19 101.5,181.5C 105.439,175.892 110.106,170.892 115.5,166.5 Z"/></g>
<g><path style="opacity:1" fill="#f05d09" d="M 57.5,167.5 C 57.8333,167.5 58.1667,167.5 58.5,167.5C 58.1202,172.819 59.1202,177.819 61.5,182.5C 61.3505,183.552 61.5172,184.552 62,185.5C 62.6667,184.167 63.3333,184.167 64,185.5C 64.866,187.896 64.366,188.563 62.5,187.5C 61.7189,188.729 61.2189,190.062 61,191.5C 59.6703,190.418 58.1703,189.751 56.5,189.5C 55.8333,189.5 55.1667,189.5 54.5,189.5C 54.5,189.167 54.5,188.833 54.5,188.5C 54.259,185.206 55.0924,182.206 57,179.5C 57.4988,175.514 57.6655,171.514 57.5,167.5 Z"/></g>
<g><path style="opacity:1" fill="#b04842" d="M 101.5,197.5 C 94.6946,206.329 85.6946,209.662 74.5,207.5C 74.5,207.167 74.5,206.833 74.5,206.5C 78.8461,206.666 83.1794,206.499 87.5,206C 89.7075,204.953 91.3742,203.453 92.5,201.5C 94.5,200.833 96.5,200.167 98.5,199.5C 99.1511,195.378 100.484,191.545 102.5,188C 101.382,186.926 100.382,185.76 99.5,184.5C 97.1455,186.188 95.1455,188.188 93.5,190.5C 91.7541,192.252 89.7541,193.585 87.5,194.5C 91.5593,189.438 96.226,185.105 101.5,181.5C 103.148,180.19 104.814,178.857 106.5,177.5C 107.842,178.902 108.676,178.569 109,176.5C 108.184,180.773 107.184,185.106 106,189.5C 102.946,191.366 101.446,194.033 101.5,197.5 Z"/></g>
<g><path style="opacity:1" fill="#e86119" d="M 66.5,167.5 C 67.3279,173.653 67.8279,179.987 68,186.5C 68.3826,187.056 68.8826,187.389 69.5,187.5C 72.1939,189.527 74.5272,191.861 76.5,194.5C 77.287,196.104 78.6203,196.771 80.5,196.5C 80.0338,198.201 80.0338,199.701 80.5,201C 79.0186,201.98 77.6853,203.147 76.5,204.5C 74.9291,203.691 73.2624,203.357 71.5,203.5C 70.5,203.167 69.8333,202.5 69.5,201.5C 72.7065,201.876 75.3732,200.876 77.5,198.5C 75.5194,195.689 72.8527,193.855 69.5,193C 70.8333,192.333 70.8333,191.667 69.5,191C 67.8654,190.46 66.5321,190.96 65.5,192.5C 64.8333,191.833 64.1667,191.167 63.5,190.5C 63.1667,190.833 62.8333,191.167 62.5,191.5C 63.7878,193.739 64.7878,196.072 65.5,198.5C 64.8333,198.5 64.1667,198.5 63.5,198.5C 61.8333,197.5 60.5,196.167 59.5,194.5C 58.7515,192.668 57.7515,191.001 56.5,189.5C 58.1703,189.751 59.6703,190.418 61,191.5C 61.2189,190.062 61.7189,188.729 62.5,187.5C 64.366,188.563 64.866,187.896 64,185.5C 63.3333,184.167 62.6667,184.167 62,185.5C 61.5172,184.552 61.3505,183.552 61.5,182.5C 64.1667,183.833 64.8333,183.167 63.5,180.5C 64.4584,180.047 65.2917,179.381 66,178.5C 66.4986,174.848 66.6653,171.182 66.5,167.5 Z"/></g>
<g><path style="opacity:1" fill="#f7e3c2" d="M 52.5,186.5 C 52.8333,187.5 53.5,188.167 54.5,188.5C 54.5,188.833 54.5,189.167 54.5,189.5C 55.1667,190.5 55.8333,191.5 56.5,192.5C 54.1911,191.612 52.5244,189.946 51.5,187.5C 51.6236,186.893 51.9569,186.56 52.5,186.5 Z"/></g>
<g><path style="opacity:1" fill="#bf493a" d="M 92.5,201.5 C 93.987,197.883 95.3203,194.216 96.5,190.5C 95.5,190.5 94.5,190.5 93.5,190.5C 95.1455,188.188 97.1455,186.188 99.5,184.5C 100.382,185.76 101.382,186.926 102.5,188C 100.484,191.545 99.1511,195.378 98.5,199.5C 96.5,200.167 94.5,200.833 92.5,201.5 Z"/></g>
<g><path style="opacity:1" fill="#de9d6c" d="M 54.5,189.5 C 55.1667,189.5 55.8333,189.5 56.5,189.5C 57.7515,191.001 58.7515,192.668 59.5,194.5C 59.1667,194.5 58.8333,194.5 58.5,194.5C 57.5,194.167 56.8333,193.5 56.5,192.5C 55.8333,191.5 55.1667,190.5 54.5,189.5 Z"/></g>
<g><path style="opacity:1" fill="#f25c10" d="M 69.5,201.5 C 67.5956,201.262 66.2623,200.262 65.5,198.5C 64.7878,196.072 63.7878,193.739 62.5,191.5C 62.8333,191.167 63.1667,190.833 63.5,190.5C 64.1667,191.167 64.8333,191.833 65.5,192.5C 66.5321,190.96 67.8654,190.46 69.5,191C 70.8333,191.667 70.8333,192.333 69.5,193C 72.8527,193.855 75.5194,195.689 77.5,198.5C 75.3732,200.876 72.7065,201.876 69.5,201.5 Z"/></g>
<g><path style="opacity:1" fill="#e8a582" d="M 69.5,185.5 C 71.9635,187.461 74.2968,189.628 76.5,192C 79.2065,193.908 82.2065,194.741 85.5,194.5C 82.6558,195.551 79.6558,195.551 76.5,194.5C 74.5272,191.861 72.1939,189.527 69.5,187.5C 69.5,186.833 69.5,186.167 69.5,185.5 Z"/></g>
<g><path style="opacity:1" fill="#f9e8ce" d="M 58.5,194.5 C 58.8333,194.5 59.1667,194.5 59.5,194.5C 60.5,196.167 61.8333,197.5 63.5,198.5C 65.3788,201.115 67.7121,203.281 70.5,205C 71.745,205.791 73.0783,206.291 74.5,206.5C 74.5,206.833 74.5,207.167 74.5,207.5C 67.384,205.386 62.0507,201.053 58.5,194.5 Z"/></g>
<g><path style="opacity:1" fill="#c95333" d="M 93.5,190.5 C 94.5,190.5 95.5,190.5 96.5,190.5C 95.3203,194.216 93.987,197.883 92.5,201.5C 91.3742,203.453 89.7075,204.953 87.5,206C 83.1794,206.499 78.8461,206.666 74.5,206.5C 73.0783,206.291 71.745,205.791 70.5,205C 67.7121,203.281 65.3788,201.115 63.5,198.5C 64.1667,198.5 64.8333,198.5 65.5,198.5C 66.2623,200.262 67.5956,201.262 69.5,201.5C 69.8333,202.5 70.5,203.167 71.5,203.5C 78.4719,207.106 84.4719,205.939 89.5,200C 88.1667,199.333 88.1667,198.667 89.5,198C 86.7216,196.608 83.7216,196.108 80.5,196.5C 78.6203,196.771 77.287,196.104 76.5,194.5C 79.6558,195.551 82.6558,195.551 85.5,194.5C 86.1667,194.5 86.8333,194.5 87.5,194.5C 89.7541,193.585 91.7541,192.252 93.5,190.5 Z"/></g>
<g><path style="opacity:1" fill="#d54f26" d="M 80.5,196.5 C 83.7216,196.108 86.7216,196.608 89.5,198C 88.1667,198.667 88.1667,199.333 89.5,200C 84.4719,205.939 78.4719,207.106 71.5,203.5C 73.2624,203.357 74.9291,203.691 76.5,204.5C 77.6853,203.147 79.0186,201.98 80.5,201C 80.0338,199.701 80.0338,198.201 80.5,196.5 Z"/></g>
<g><path style="opacity:1" fill="#f8e2da" d="M 113.5,186.5 C 114.167,186.5 114.5,186.833 114.5,187.5C 107.92,195.581 100.254,202.414 91.5,208C 85.6513,208.818 79.9846,208.652 74.5,207.5C 85.6946,209.662 94.6946,206.329 101.5,197.5C 105.5,193.833 109.5,190.167 113.5,186.5 Z"/></g>
</svg>
